<svg width="24" height="24" viewBox="0 0 24 24" fill="none" xmlns="http://www.w3.org/2000/svg">
<path d="M21.75 11.25H21V3.705C21 3.1202 20.7677 2.55935 20.3542 2.14583C19.9407 1.73231 19.3798 1.5 18.795 1.5H5.205C4.6202 1.5 4.05935 1.73231 3.64583 2.14583C3.23231 2.55935 3 3.1202 3 3.705V11.25H2.25C2.05109 11.25 1.86032 11.329 1.71967 11.4697C1.57902 11.6103 1.5 11.8011 1.5 12V18.75C1.5 18.9489 1.57902 19.1397 1.71967 19.2803C1.86032 19.421 2.05109 19.5 2.25 19.5H3V21.75C3 21.9489 3.07902 22.1397 3.21967 22.2803C3.36032 22.421 3.55109 22.5 3.75 22.5H6.75C6.94891 22.5 7.13968 22.421 7.28033 22.2803C7.42098 22.1397 7.5 21.9489 7.5 21.75V19.5H16.5V21.75C16.5 21.9489 16.579 22.1397 16.7197 22.2803C16.8603 22.421 17.0511 22.5 17.25 22.5H20.25C20.4489 22.5 20.6397 22.421 20.7803 22.2803C20.921 22.1397 21 21.9489 21 21.75V19.5H21.75C21.9489 19.5 22.1397 19.421 22.2803 19.2803C22.421 19.1397 22.5 18.9489 22.5 18.75V12C22.5 11.8011 22.421 11.6103 22.2803 11.4697C22.1397 11.329 21.9489 11.25 21.75 11.25ZM4.5 3.705C4.5 3.51802 4.57428 3.3387 4.70649 3.20649C4.8387 3.07428 5.01802 3 5.205 3H18.795C18.982 3 19.1613 3.07428 19.2935 3.20649C19.4257 3.3387 19.5 3.51802 19.5 3.705V11.25H18.375V8.16C18.375 7.96109 18.296 7.77032 18.1553 7.62967C18.0147 7.48902 17.8239 7.41 17.625 7.41H6.375C6.17609 7.41 5.98532 7.48902 5.84467 7.62967C5.70402 7.77032 5.625 7.96109 5.625 8.16V11.25H4.5V3.705ZM7.125 11.25V8.91H11.25V11.25H7.125ZM12.75 8.91H16.875V11.25H12.75V8.91ZM3.75 12.75H21V14.5H3V12.75H3.75ZM6 21H4.5V19.5H6V21ZM19.5 21H18V19.5H19.5V21ZM3 18.5V15H21V18.5H3Z" fill="#49DEB8"/>
</svg>
