<svg width="24" height="24" viewBox="0 0 24 24" fill="none" xmlns="http://www.w3.org/2000/svg">
<path fill-rule="evenodd" clip-rule="evenodd" d="M3.46059 6.8001C5.28554 3.80701 8.54635 1.98613 12.058 2.00024C16.2115 2.03077 19.9153 4.61803 21.3675 8.50387C22.8199 12.3901 21.7187 16.7681 18.5997 19.5079C15.4812 22.2473 10.9929 22.7804 7.31788 20.848L7.27208 20.8319C7.26493 20.8278 7.26378 20.8242 7.26224 20.8194L6.57971 20.4332C6.4407 20.3763 6.28665 20.3671 6.19261 20.3909C5.4831 20.646 4.75798 20.8554 4.02167 21.018L3.88671 21.0343C3.07616 21.0523 2.66776 20.5263 2.66776 19.7609L2.6873 19.597C2.87136 18.8357 3.10204 18.0865 3.36458 17.3927C3.40531 17.2613 3.39175 17.1192 3.32147 16.9875L3.13765 16.6292C1.51288 13.5227 1.63541 9.79358 3.46059 6.8001ZM12.0484 3.39463L11.7675 3.39903C8.85494 3.48236 6.17338 5.03121 4.65196 7.52649C3.08168 10.1019 2.97627 13.3099 4.37662 15.9874L4.55755 16.3402C4.79818 16.7905 4.84853 17.3183 4.68389 17.8451C4.42804 18.5246 4.21419 19.2192 4.04356 19.9249L4.13767 19.5573L4.53273 19.4541C4.80372 19.3794 5.07605 19.2969 5.35272 19.2055L5.77133 19.0617C6.21354 18.9399 6.6837 18.9681 7.14685 19.159C7.24408 19.2059 7.36471 19.271 7.51677 19.3569L7.93909 19.5993L7.95729 19.6042L7.94496 19.6026L8.23269 19.7468C11.2582 21.2076 14.8626 20.778 17.4587 18.6466L17.6788 18.4596C20.3626 16.1021 21.31 12.3357 20.0605 8.99235C18.8109 5.64861 15.6231 3.42182 12.0484 3.39463Z" fill="#707070"/>
<circle cx="15.5" cy="15.5" r="6.5" fill="#EB5757"/>
<path d="M14.5967 15.0059H15.2754C15.7018 14.9993 16.0371 14.887 16.2812 14.6689C16.5254 14.4508 16.6475 14.1562 16.6475 13.7852C16.6475 12.9518 16.2324 12.5352 15.4023 12.5352C15.0117 12.5352 14.6992 12.6475 14.4648 12.8721C14.2337 13.0934 14.1182 13.388 14.1182 13.7559H13.2148C13.2148 13.1927 13.4199 12.7256 13.8301 12.3545C14.2435 11.9801 14.7676 11.793 15.4023 11.793C16.0729 11.793 16.5986 11.9704 16.9795 12.3252C17.3604 12.68 17.5508 13.1732 17.5508 13.8047C17.5508 14.1139 17.4499 14.4134 17.248 14.7031C17.0495 14.9928 16.7777 15.2093 16.4326 15.3525C16.8232 15.4762 17.1243 15.6813 17.3359 15.9678C17.5508 16.2542 17.6582 16.6042 17.6582 17.0176C17.6582 17.6556 17.4499 18.1618 17.0332 18.5361C16.6165 18.9105 16.0745 19.0977 15.4072 19.0977C14.7399 19.0977 14.1963 18.917 13.7764 18.5557C13.3597 18.1943 13.1514 17.7174 13.1514 17.125H14.0596C14.0596 17.4993 14.1816 17.7988 14.4258 18.0234C14.6699 18.248 14.9971 18.3604 15.4072 18.3604C15.8434 18.3604 16.1771 18.2464 16.4082 18.0186C16.6393 17.7907 16.7549 17.4635 16.7549 17.0371C16.7549 16.6237 16.6279 16.3063 16.374 16.085C16.1201 15.8636 15.7539 15.7497 15.2754 15.7432H14.5967V15.0059Z" fill="white"/>
</svg>
