<svg width="24" height="24" viewBox="0 0 24 24" fill="none" xmlns="http://www.w3.org/2000/svg">
<path d="M11.7321 22.8048L21.5 17.5L21.3884 6.85714L11.7321 11.2246V22.8048ZM11.1429 10.2321L20.5 6L11.1429 2.59339L2 6L11.1429 10.2321ZM22.2857 6.85714V17.1429C22.2857 17.4554 22.2054 17.7455 22.0446 18.0134C21.8839 18.2812 21.6652 18.4911 21.3884 18.6429L11.9598 23.7857C11.7098 23.9286 11.4375 24 11.1429 24C10.8482 24 10.5759 23.9286 10.3259 23.7857L0.897321 18.6429C0.620536 18.4911 0.401786 18.2812 0.241071 18.0134C0.0803571 17.7455 0 17.4554 0 17.1429V6.85714C0 6.5 0.102679 6.17411 0.308036 5.87946C0.513393 5.58482 0.785714 5.375 1.125 5.25L10.5536 1.82143C10.75 1.75 10.9464 1.71429 11.1429 1.71429C11.3393 1.71429 11.5357 1.75 11.7321 1.82143L21.1607 5.25C21.5 5.375 21.7723 5.58482 21.9777 5.87946C22.183 6.17411 22.2857 6.5 22.2857 6.85714Z" fill="#AABBD7"/>
<path d="M14.625 6.5C14.625 6.85964 14.3665 7.25852 13.7888 7.58862C13.2218 7.91266 12.4133 8.125 11.5 8.125C10.5867 8.125 9.77824 7.91266 9.21118 7.58862C8.6335 7.25852 8.375 6.85964 8.375 6.5C8.375 6.14036 8.6335 5.74148 9.21118 5.41138C9.77824 5.08734 10.5867 4.875 11.5 4.875C12.4133 4.875 13.2218 5.08734 13.7888 5.41138C14.3665 5.74148 14.625 6.14036 14.625 6.5Z" stroke="#AABBD7" stroke-width="0.75"/>
</svg>
