<svg width="24" height="24" viewBox="0 0 24 24" fill="none" xmlns="http://www.w3.org/2000/svg">
<path d="M1.6154 7.15385H7.78189C8.09165 8.34944 9.17011 9.23889 10.4613 9.23889C11.7524 9.23889 12.8309 8.34944 13.1406 7.15385H22.3846C22.7668 7.15385 23.0769 6.84375 23.0769 6.46154C23.0769 6.07933 22.7668 5.76923 22.3846 5.76923H13.1406C12.8309 4.57364 11.7524 3.6842 10.4613 3.6842C9.17011 3.6842 8.09165 4.57364 7.78189 5.76923H1.6154C1.23319 5.76923 0.923096 6.07933 0.923096 6.46154C0.923096 6.84375 1.23319 7.15385 1.6154 7.15385ZM10.4613 5.06881C11.2293 5.06881 11.854 5.69351 11.854 6.46154C11.854 7.22957 11.2293 7.85427 10.4613 7.85427C9.69323 7.85427 9.06853 7.22957 9.06853 6.46154C9.06853 5.69351 9.69323 5.06881 10.4613 5.06881Z" fill="#707070"/>
<path d="M22.3846 11.3077H20.902C20.5923 10.1121 19.5138 9.22266 18.2227 9.22266C16.9315 9.22266 15.8531 10.1121 15.5433 11.3077H1.6154C1.23319 11.3077 0.923096 11.6178 0.923096 12C0.923096 12.3822 1.23319 12.6923 1.6154 12.6923H15.5433C15.8531 13.8879 16.9315 14.7773 18.2227 14.7773C19.5138 14.7773 20.5923 13.8879 20.902 12.6923H22.3846C22.7668 12.6923 23.0769 12.3822 23.0769 12C23.0769 11.6178 22.7668 11.3077 22.3846 11.3077ZM18.2227 13.3927C17.4546 13.3927 16.8299 12.768 16.8299 12C16.8299 11.232 17.4546 10.6073 18.2227 10.6073C18.9907 10.6073 19.6154 11.232 19.6154 12C19.6154 12.768 18.9907 13.3927 18.2227 13.3927Z" fill="#707070"/>
<path d="M22.3846 16.8462H8.97061C8.66091 15.6506 7.5825 14.7611 6.29209 14.7611C5.00094 14.7611 3.92248 15.6506 3.61272 16.8462H1.6154C1.23319 16.8462 0.923096 17.1562 0.923096 17.5385C0.923096 17.9207 1.23319 18.2308 1.6154 18.2308H3.61272C3.92248 19.4264 5.00094 20.3158 6.29209 20.3158C7.5825 20.3158 8.66091 19.4264 8.97061 18.2308H22.3846C22.7668 18.2308 23.0769 17.9207 23.0769 17.5385C23.0769 17.1562 22.7668 16.8462 22.3846 16.8462ZM6.29209 18.9312C5.52406 18.9312 4.89936 18.3065 4.89936 17.5385C4.89936 16.7704 5.52406 16.1457 6.29209 16.1457C7.05921 16.1457 7.68391 16.7704 7.68391 17.5385C7.68391 18.3065 7.05921 18.9312 6.29209 18.9312Z" fill="#707070"/>
</svg>
