<svg width="24" height="24" viewBox="0 0 24 24" fill="none" xmlns="http://www.w3.org/2000/svg">
<path d="M10.1532 5.03437C10.3594 5.60624 10.6782 6.01874 11.1 6.25311C11.3719 6.40311 11.6813 6.48749 11.9813 6.48749C11.9907 6.48749 12 6.48749 12.0188 6.48749C12.3282 6.48749 12.6375 6.40311 12.9094 6.25311C13.3313 6.00937 13.65 5.60624 13.8563 5.03437C14.025 4.57499 14.2313 3.96562 14.2688 3.32812C14.3157 2.63437 14.1 1.97812 13.6782 1.53749C13.2657 1.10624 12.6657 0.871866 12.0188 0.899991C11.3532 0.881241 10.7532 1.10624 10.3407 1.53749C9.91879 1.97812 9.69379 2.63437 9.75004 3.32812C9.77817 3.96562 9.98442 4.57499 10.1532 5.03437ZM10.9688 2.14687C11.2125 1.89374 11.5688 1.76249 12.0094 1.78124C12.4219 1.76249 12.7875 1.90312 13.0219 2.14687C13.275 2.40937 13.3969 2.81249 13.3688 3.26249C13.3313 3.78749 13.1532 4.32187 13.0032 4.72499C12.8719 5.09062 12.6844 5.34374 12.45 5.47499C12.3094 5.54999 12.1407 5.58749 11.9813 5.59687C11.8219 5.59687 11.6625 5.55937 11.5219 5.47499C11.2875 5.34374 11.1 5.09062 10.9688 4.72499C10.8188 4.32187 10.6407 3.78749 10.6032 3.26249C10.5938 2.81249 10.7157 2.40937 10.9688 2.14687Z" fill="#707070"/>
<path d="M16.2562 8.90624C16.1437 8.27811 15.7219 7.76249 15.1312 7.52811C14.4469 7.24686 13.5 6.83436 13.5 6.83436L13.2656 6.73124L13.0594 6.88123C13.0594 6.88123 12.975 6.94686 12.9094 6.98436C12.75 7.08748 12.5812 7.15311 12.4031 7.19999C12.3 7.22811 12.1969 7.23748 12.1125 7.23748H11.8875C11.7937 7.23748 11.7 7.21873 11.5875 7.19061C11.4094 7.15311 11.2406 7.07811 11.0719 6.96561C11.025 6.93749 10.9406 6.87186 10.9406 6.87186L10.7062 6.70311L10.4531 6.84373C10.4437 6.84373 10.4156 6.86248 10.3781 6.88123C10.1156 7.00311 9.43124 7.28436 8.86874 7.51873C8.27811 7.76248 7.86561 8.27811 7.75311 8.89686L7.42499 10.6219H16.5937L16.2562 8.90624ZM8.48436 9.74061L8.61561 9.06561C8.67186 8.73748 8.89686 8.46561 9.19686 8.34374C9.44999 8.24061 10.2281 7.92186 10.6312 7.74373C10.875 7.89373 11.1281 7.99686 11.3906 8.06248C11.55 8.09998 11.7094 8.11873 11.8875 8.12811H12.1406C12.2906 8.11873 12.45 8.09998 12.6094 8.06248C12.8812 7.99686 13.1437 7.89373 13.3687 7.74373C13.3687 7.74373 13.3781 7.74373 13.3781 7.73436C13.7062 7.87498 14.3156 8.13749 14.8031 8.33436C15.1125 8.46561 15.3281 8.72811 15.3937 9.05623L15.525 9.73124H8.48436V9.74061Z" fill="#707070"/>
<path d="M3.40314 17.5125C3.60939 18.0844 3.92814 18.4969 4.35001 18.7312C4.62189 18.8812 4.93126 18.9656 5.23126 18.9656C5.24064 18.9656 5.25001 18.9656 5.25939 18.9656C5.56876 18.9656 5.87814 18.8812 6.15001 18.7312C6.57189 18.4875 6.89064 18.0844 7.09689 17.5125C7.26564 17.0531 7.47189 16.4437 7.50939 15.8062C7.55626 15.1125 7.34064 14.4562 6.91876 14.0156C6.50626 13.5844 5.90626 13.35 5.25939 13.3781C4.59376 13.35 3.99376 13.5844 3.58127 14.0156C3.15939 14.4562 2.93439 15.1125 2.99064 15.8062C3.03752 16.4437 3.23439 17.0531 3.40314 17.5125ZM4.21876 14.625C4.44376 14.3812 4.79064 14.2594 5.20314 14.2594C5.22189 14.2594 5.24064 14.2594 5.25939 14.2594C5.50314 14.25 5.95314 14.2875 6.27189 14.625C6.52501 14.8875 6.64689 15.2906 6.61876 15.7406C6.58126 16.275 6.40314 16.8 6.25314 17.2031C6.12189 17.5687 5.93439 17.8219 5.70001 17.9531C5.55939 18.0281 5.40001 18.0656 5.23126 18.075C5.07189 18.075 4.91251 18.0375 4.77189 17.9531C4.53751 17.8219 4.35001 17.5687 4.21876 17.2031C4.06876 16.8 3.89064 16.2656 3.85314 15.7406C3.84376 15.2906 3.96564 14.8875 4.21876 14.625Z" fill="#707070"/>
<path d="M8.39063 20.0062C7.70625 19.725 6.75938 19.3125 6.75938 19.3125L6.525 19.2094L6.31875 19.3687C6.31875 19.3687 6.23438 19.4344 6.16875 19.4719C6.00938 19.575 5.84063 19.6406 5.6625 19.6875C5.55 19.7156 5.45625 19.725 5.37188 19.725C5.34375 19.725 5.31563 19.725 5.27813 19.725H5.25H5.22188C5.19375 19.725 5.16563 19.725 5.1375 19.725C5.04375 19.725 4.95 19.7062 4.8375 19.6781C4.65938 19.6406 4.49063 19.5656 4.32188 19.4531C4.275 19.425 4.19063 19.3594 4.18125 19.3594L3.975 19.2094L3.74063 19.3125C3.74063 19.3125 2.79375 19.725 2.10938 20.0062C1.51875 20.25 1.10625 20.7656 0.984375 21.3844L0.65625 23.1094H9.825L9.49688 21.3844C9.39375 20.7562 8.98125 20.2406 8.39063 20.0062ZM1.73438 22.2187L1.86563 21.5437C1.92188 21.2156 2.14688 20.9437 2.44688 20.8219C2.93438 20.625 3.54375 20.3625 3.87188 20.2219C4.11563 20.3719 4.36875 20.4844 4.64063 20.5406C4.80938 20.5781 4.95938 20.5969 5.1375 20.6062C5.175 20.6062 5.2125 20.6062 5.25 20.6062C5.2875 20.6062 5.325 20.6062 5.39063 20.6062C5.54063 20.6062 5.7 20.5781 5.85938 20.5406C6.13125 20.475 6.39375 20.3719 6.61875 20.2219C6.61875 20.2219 6.62813 20.2219 6.62813 20.2125C6.95625 20.3531 7.56563 20.6156 8.05313 20.8125C8.3625 20.9344 8.57813 21.2062 8.64375 21.5344L8.775 22.2094H1.73438V22.2187Z" fill="#707070"/>
<path d="M16.4813 15.7969C16.5282 16.4344 16.725 17.0437 16.8938 17.5031C17.1 18.075 17.4188 18.4875 17.8407 18.7219C18.1125 18.8719 18.4219 18.9562 18.7219 18.9562C18.7313 18.9562 18.7313 18.9562 18.7407 18.9562C19.05 18.9562 19.3688 18.8812 19.65 18.7219C20.0719 18.4781 20.3907 18.075 20.5969 17.5031C20.7657 17.0437 20.9719 16.4344 21.0094 15.7969C21.0563 15.1031 20.8407 14.4469 20.4188 14.0062C20.0063 13.575 19.4063 13.3406 18.7594 13.3687C18.0938 13.3406 17.4938 13.575 17.0813 14.0062C16.65 14.4562 16.4344 15.1031 16.4813 15.7969ZM17.7188 14.625C18.0469 14.2875 18.4969 14.25 18.7594 14.2594C19.1719 14.25 19.5375 14.3812 19.7719 14.625C20.025 14.8875 20.1469 15.2906 20.1188 15.7406C20.0813 16.275 19.9032 16.8 19.7532 17.2031C19.6219 17.5687 19.4344 17.8219 19.2 17.9531C19.0594 18.0281 18.8907 18.0656 18.7313 18.075C18.5719 18.075 18.4125 18.0375 18.2719 17.9531C18.0375 17.8219 17.85 17.5687 17.7188 17.2031C17.5688 16.8 17.3907 16.2656 17.3532 15.7406C17.3344 15.2906 17.4657 14.8875 17.7188 14.625Z" fill="#707070"/>
<path d="M23.0062 21.3844C22.8937 20.7656 22.4718 20.2406 21.8812 20.0062C21.1969 19.725 20.25 19.3125 20.25 19.3125L20.0156 19.2094L19.8094 19.3594C19.8094 19.3594 19.725 19.425 19.6594 19.4625C19.5 19.5656 19.3312 19.6312 19.1531 19.6781C19.0406 19.7062 18.9469 19.7156 18.8625 19.7156C18.8344 19.7156 18.8062 19.7156 18.7687 19.7156H18.7406H18.7125C18.6844 19.7156 18.6562 19.7156 18.6281 19.7156C18.5344 19.7156 18.4406 19.6969 18.3281 19.6687C18.15 19.6312 17.9812 19.5562 17.8125 19.4437C17.7656 19.4156 17.6812 19.35 17.6719 19.35L17.4656 19.2L17.2312 19.3031C17.2312 19.3031 16.2844 19.7156 15.6 19.9969C15.0094 20.2406 14.5969 20.7562 14.475 21.375L14.1469 23.1H23.3156L23.0062 21.3844ZM15.2344 22.2187L15.3656 21.5437C15.4219 21.2156 15.6469 20.9437 15.9469 20.8219C16.4344 20.625 17.0437 20.3625 17.3719 20.2219C17.6156 20.3719 17.8687 20.4844 18.1406 20.5406C18.3094 20.5781 18.4594 20.5969 18.6375 20.6062C18.675 20.6062 18.7125 20.6062 18.75 20.6062C18.7875 20.6062 18.8344 20.6062 18.8906 20.6062C19.0406 20.6062 19.2 20.5781 19.3594 20.5406C19.6312 20.475 19.8937 20.3719 20.1187 20.2219C20.1187 20.2219 20.1281 20.2219 20.1281 20.2125C20.4562 20.3531 21.0656 20.6156 21.5531 20.8125C21.8625 20.9437 22.0781 21.2062 22.1437 21.5344L22.275 22.2094H15.2344V22.2187Z" fill="#707070"/>
<path d="M14.3531 17.5031C14.5031 17.5031 14.6437 17.4281 14.7281 17.2969C14.8593 17.0906 14.7937 16.8187 14.5875 16.6875L12.45 15.3469L12.4312 12.7969C12.4312 12.5531 12.2343 12.3562 11.9906 12.3562C11.7468 12.3562 11.55 12.5531 11.55 12.8062L11.5687 15.3281L9.40308 16.6781C9.19683 16.8094 9.1312 17.0812 9.26245 17.2875C9.34683 17.4187 9.48745 17.4937 9.63745 17.4937C9.72183 17.4937 9.79683 17.475 9.87183 17.4281L12 16.1062L14.1187 17.4375C14.1937 17.475 14.2781 17.5031 14.3531 17.5031Z" fill="#707070"/>
</svg>
