<svg width="24" height="24" viewBox="0 0 24 24" fill="none" xmlns="http://www.w3.org/2000/svg">
<path d="M0.796501 12L10.5 0.891C10.9102 0.4455 11.2965 0 12 0C12.7035 0 13.0898 0.4455 13.5 0.891L18 6.0435V3C18 2.172 18.672 1.5 19.5 1.5C20.328 1.5 21 2.172 21 3V9.47775L23.2028 12C23.6955 12.5505 24 12.891 24 13.5C24 14.262 23.4022 15 22.5 15H21V22.5C21 23.325 20.325 24 19.5 24H4.5C3.675 24 3 23.325 3 22.5V15H1.5C0.59775 15 0 14.262 0 13.5C0 12.891 0.304501 12.5505 0.796501 12ZM6 12V21H9V15H15V21H18V12H19.2203L12 3.73425L4.77975 12H6Z" fill="#49DEB8"/>
</svg>
