<svg width="24" height="24" viewBox="0 0 24 24" fill="none" xmlns="http://www.w3.org/2000/svg">
<path d="M9.00293 3.00146C8.90432 3.00089 8.80656 3.01978 8.71526 3.05703C8.62395 3.09428 8.54088 3.14917 8.47081 3.21856C8.40075 3.28795 8.34505 3.37048 8.3069 3.46141C8.26876 3.55235 8.24893 3.64992 8.24854 3.74853V6H3.75C3.55109 6.00002 3.36034 6.07904 3.21969 6.21969C3.07904 6.36034 3.00002 6.55109 3 6.75V11.25V20.25C3.00002 20.4489 3.07904 20.6397 3.21969 20.7803C3.36034 20.921 3.55109 21 3.75 21H20.25C20.4489 21 20.6397 20.921 20.7803 20.7803C20.921 20.6397 21 20.4489 21 20.25V11.25V6.75C21 6.55109 20.921 6.36034 20.7803 6.21969C20.6397 6.07904 20.4489 6.00002 20.25 6H15.7515V3.74853C15.7507 3.54963 15.6709 3.35918 15.5297 3.21908C15.3885 3.07898 15.1974 3.0007 14.9985 3.00146H9.00293ZM9.75 4.50146H14.2515V6H9.75V4.50146ZM4.5 7.5H8.94287C8.96286 7.50129 8.9829 7.50178 9.00293 7.50146H14.9985C15.0108 7.50127 15.023 7.50078 15.0352 7.5H19.5V10.686L16.7227 11.4932L15.7192 11.7847C15.7044 11.7364 15.6848 11.6898 15.6606 11.6455C15.649 11.6239 15.6363 11.6029 15.6226 11.5825C15.6084 11.5618 15.5933 11.5417 15.5771 11.5225C15.5133 11.4451 15.4346 11.3814 15.3457 11.335C15.3433 11.3335 15.3408 11.332 15.3384 11.3306C15.3183 11.3204 15.2978 11.3111 15.2769 11.3027C15.2749 11.3017 15.273 11.3008 15.271 11.2998C15.2498 11.292 15.2283 11.2852 15.2065 11.2793C15.1848 11.2729 15.1628 11.2676 15.1406 11.2632C15.1382 11.2627 15.1357 11.2622 15.1333 11.2617C15.1309 11.2612 15.1284 11.2607 15.126 11.2603C15.1036 11.2568 15.0812 11.2544 15.0586 11.2529C15.0396 11.2512 15.0205 11.2502 15.0015 11.25H15H14.2515V10.5029C14.2513 10.4517 14.2459 10.4007 14.2354 10.3506C14.2302 10.3264 14.2238 10.3024 14.2163 10.2788C14.2096 10.2555 14.2018 10.2325 14.1929 10.21L14.1914 10.2085C14.1723 10.1628 14.1488 10.1192 14.1211 10.0781L14.1196 10.0767C14.1059 10.0564 14.0913 10.0369 14.0757 10.0181L14.0742 10.0166C14.058 9.99769 14.0409 9.97961 14.0229 9.9624C14.0057 9.94542 13.9876 9.92929 13.9688 9.91406L13.9658 9.9126C13.9475 9.89754 13.9284 9.88336 13.9087 9.87012L13.9058 9.86865C13.8432 9.82853 13.7751 9.79793 13.7036 9.77783H13.7007C13.69 9.77515 13.6793 9.77271 13.6685 9.77051C13.6558 9.76725 13.6431 9.76432 13.6304 9.76172C13.6139 9.75872 13.5972 9.75628 13.5806 9.75439C13.5728 9.75329 13.565 9.75232 13.5571 9.75146H13.5527C13.542 9.75074 13.5313 9.75026 13.5205 9.75C13.5137 9.7499 13.5068 9.7499 13.5 9.75H10.5H10.4941C10.4539 9.75067 10.4137 9.75459 10.374 9.76172C10.3568 9.76454 10.3397 9.76796 10.3228 9.77197C10.308 9.77543 10.2933 9.77934 10.2788 9.78369C10.2555 9.79038 10.2325 9.79821 10.21 9.80713L10.2085 9.80859C10.1628 9.82767 10.1192 9.85122 10.0781 9.8789L10.0767 9.88037C10.0564 9.89405 10.0369 9.90872 10.0181 9.92431L10.0166 9.92578C9.99823 9.94152 9.98063 9.95814 9.96387 9.97558C9.9614 9.9785 9.95896 9.98142 9.95654 9.98437C9.94173 9.99939 9.92756 10.015 9.91406 10.0312L9.9126 10.0342C9.89754 10.0525 9.88337 10.0716 9.87012 10.0913L9.86865 10.0942C9.82854 10.1568 9.79793 10.2249 9.77783 10.2964V10.2993C9.77134 10.3225 9.76596 10.3459 9.76172 10.3696C9.75855 10.3886 9.7561 10.4076 9.75439 10.4268C9.75335 10.4326 9.75237 10.4385 9.75146 10.4443V10.4473C9.75082 10.456 9.75033 10.4648 9.75 10.4736C9.74985 10.4824 9.74985 10.4912 9.75 10.5V10.5029V11.25H9H8.99414C8.95287 11.2505 8.91172 11.2544 8.87109 11.2617C8.85487 11.2646 8.83875 11.268 8.82275 11.272C8.80799 11.2754 8.79334 11.2793 8.77881 11.2837C8.75547 11.2909 8.73249 11.2992 8.70996 11.3086L8.7085 11.3101C8.68604 11.3192 8.66404 11.3295 8.64258 11.3408L8.64111 11.3423C8.57504 11.3785 8.51479 11.4244 8.4624 11.4785C8.44546 11.4953 8.42933 11.5129 8.41406 11.5312L8.4126 11.5342C8.3975 11.553 8.38333 11.5726 8.37012 11.5928L8.36865 11.5957C8.34181 11.6378 8.31924 11.6824 8.30127 11.729C8.28739 11.7638 8.27613 11.7995 8.26758 11.8359L4.5 10.6934V7.5ZM14.6815 14.6382L12.75 11.25V12C12.7503 12.024 12.7518 12.0479 12.7544 12.0718V12.0747C12.7567 12.0988 12.7601 12.1227 12.7646 12.1465V12.1494C12.7699 12.1731 12.7762 12.1966 12.7837 12.2197V12.2212C12.7909 12.2445 12.7992 12.2675 12.8086 12.29C12.8137 12.3014 12.8191 12.3126 12.8247 12.3237C12.8298 12.3351 12.8352 12.3463 12.8408 12.3574L12.8423 12.3589C12.8539 12.3805 12.8667 12.4015 12.8804 12.4219C12.891 12.4374 12.9023 12.4526 12.9141 12.4673C12.9174 12.4722 12.9208 12.4771 12.9243 12.4819L12.9258 12.4834C12.9415 12.5018 12.9581 12.5194 12.9756 12.5361C12.9785 12.5386 12.9814 12.541 12.9844 12.5435C13.0178 12.5755 13.0541 12.6045 13.0928 12.6299C13.0991 12.6334 13.1054 12.6368 13.1118 12.6401C13.1491 12.663 13.1883 12.6827 13.229 12.6987C13.2511 12.7076 13.2736 12.7154 13.2964 12.7222H13.2993C13.3225 12.7287 13.3459 12.734 13.3696 12.7383C13.3886 12.7415 13.4076 12.7439 13.4268 12.7456C13.4326 12.7466 13.4385 12.7476 13.4443 12.7485H13.4473C13.4638 12.7496 13.4805 12.7501 13.4971 12.75H13.5L11.6846 15.4057L14.6815 14.9136L14.25 14.25H13.5C13.475 14.2502 13.4501 14.2517 13.4253 14.2544C13.4184 14.2553 13.4116 14.2563 13.4048 14.2573C13.3621 14.2625 13.32 14.2713 13.2788 14.2837L13.2759 14.2852C13.2292 14.2998 13.1841 14.3189 13.1411 14.3423C13.1377 14.3442 13.1343 14.3462 13.1309 14.3481C13.0468 14.3955 12.9727 14.4587 12.9126 14.5342L12.9111 14.5371C12.8961 14.5555 12.8819 14.5745 12.8687 14.5942L12.8672 14.5972C12.8544 14.6181 12.8427 14.6396 12.832 14.6616L12.8306 14.6631C12.8197 14.6846 12.81 14.7066 12.8013 14.729L12.7998 14.7319C12.7914 14.754 12.7841 14.7765 12.7778 14.7993C12.774 14.8129 12.7706 14.8266 12.7676 14.8403C12.7649 14.851 12.7625 14.8618 12.7603 14.8726V14.8755C12.7562 14.8993 12.7532 14.9232 12.7515 14.9473V14.9502C12.7507 14.9609 12.7503 14.9717 12.75 14.9824C12.7499 14.9878 12.7499 14.9932 12.75 14.9985V15V15.75L11.8913 14.7773L11.25 15V14.9985C11.2497 14.9741 11.2483 14.9496 11.2456 14.9253V14.9238C11.2451 14.9204 11.2447 14.917 11.2441 14.9136C11.2391 14.8674 11.2298 14.8218 11.2163 14.7773C11.2091 14.754 11.2008 14.731 11.1914 14.7085L11.1899 14.7056C11.1802 14.6836 11.1695 14.6621 11.1577 14.6411L11.1562 14.6382C11.145 14.6171 11.1328 14.5966 11.1196 14.5767L11.1182 14.5752C11.0894 14.5339 11.0565 14.4956 11.02 14.4609C11.005 14.4461 10.9894 14.432 10.9731 14.4185C10.9702 14.416 10.9673 14.4136 10.9644 14.4111C10.961 14.4092 10.9575 14.4072 10.9541 14.4053C10.9179 14.3769 10.8792 14.3519 10.8384 14.3306C10.8164 14.3197 10.7939 14.3099 10.771 14.3013H10.7695C10.747 14.2923 10.724 14.2845 10.7007 14.2778C10.6354 14.2595 12.5678 16.5002 12.5 16.5L14.3543 14.729L13.229 13.5202L13.5205 12.1494L11.6846 11.272L10.5029 12.75C10.5521 12.7499 10.6012 12.745 10.6494 12.7353C10.6736 12.7302 10.6976 12.7238 10.7212 12.7163C10.739 12.7106 10.7566 12.7043 10.7739 12.6973C10.7798 12.6954 10.7857 12.6934 10.7915 12.6914L10.7944 12.6899C10.8396 12.6708 10.8828 12.6472 10.9233 12.6196L10.9263 12.6182C10.946 12.6044 10.9651 12.5898 10.9834 12.5742L10.9849 12.5728L10.9878 12.5698C11.0051 12.555 11.0217 12.5393 11.0376 12.5229C11.0552 12.5048 11.0718 12.4857 11.0874 12.4658L11.0889 12.4644C11.104 12.4455 11.1181 12.426 11.1313 12.4058L11.1328 12.4028C11.1353 12.3985 11.1377 12.3941 11.1401 12.3896C11.1506 12.3729 11.1603 12.3558 11.1694 12.3384C11.1803 12.3164 11.1901 12.2939 11.1987 12.271L11.2002 12.2695C11.2086 12.2469 11.216 12.224 11.2222 12.2007L11.2236 12.1978C11.2301 12.1746 11.2355 12.1511 11.2397 12.1274V12.1245C11.2438 12.1007 11.2468 12.0768 11.2485 12.0527V12.0513C11.2496 12.0342 11.2501 12.0171 11.25 12V11.9971L14.6815 14.6382ZM19.5 12.249V19.5H4.5V12.2607L6.54053 12.8804L8.24854 13.3989V14.9985C8.24897 15.0741 8.26082 15.1492 8.28369 15.2212C8.29039 15.2445 8.29821 15.2675 8.30713 15.29L8.30859 15.2915C8.32767 15.3372 8.35122 15.3808 8.37891 15.4219L8.38037 15.4233C8.39406 15.4436 8.40872 15.4631 8.42432 15.4819L8.42578 15.4834C8.53904 15.6183 8.69617 15.7091 8.86963 15.7397H8.87256C8.89584 15.7438 8.91931 15.7467 8.94287 15.7485H8.94727C8.96578 15.7502 8.98435 15.7512 9.00293 15.7515H9.75V16.4985V16.5V16.5029C9.75016 16.5516 9.75507 16.6002 9.76465 16.6479V16.6494C9.76604 16.6553 9.76751 16.6612 9.76904 16.667C9.77325 16.6852 9.77813 16.7033 9.78369 16.7212C9.80529 16.7924 9.83738 16.8601 9.87891 16.9219L9.88037 16.9233C9.89406 16.9436 9.90872 16.9631 9.92432 16.9819L9.92578 16.9834C9.94196 17.0023 9.95907 17.0204 9.97705 17.0376C10.0847 17.1428 10.2215 17.2133 10.3696 17.2397H10.3726C10.4156 17.2474 10.4592 17.2514 10.5029 17.2515H13.4971C13.5983 17.2515 13.6984 17.2311 13.7915 17.1914C13.9075 17.1426 14.0094 17.0653 14.0878 16.9668C14.1661 16.8682 14.2184 16.7515 14.2397 16.6274C14.2438 16.6042 14.2467 16.5807 14.2485 16.5571C14.2503 16.5376 14.2513 16.5181 14.2515 16.4985V15.7515H14.9985C15.0741 15.751 15.1492 15.7392 15.2212 15.7163C15.2445 15.7096 15.2675 15.7018 15.29 15.6929L15.2915 15.6914C15.3377 15.6719 15.3819 15.6479 15.4233 15.6196C15.5064 15.563 15.5772 15.4902 15.6315 15.4057C15.6859 15.3211 15.7227 15.2265 15.7397 15.1274C15.7438 15.1042 15.7467 15.0807 15.7485 15.0571C15.7503 15.0376 15.7513 15.0181 15.7515 14.9985V13.3389V13.3374L19.5 12.249Z" fill="#49DEB8"/>
</svg>
