<svg width="24" height="24" viewBox="0 0 24 24" fill="none" xmlns="http://www.w3.org/2000/svg">
<circle r="11.5" transform="matrix(-1 0 0 1 12 12)" stroke="#9EB2D2"/>
<path d="M8.2999 13.4275C8.70293 13.3408 9.02175 13.5279 9.30405 13.6914C9.59317 13.8598 10.1429 14.3057 10.458 14.1916C12.0714 13.5273 13.5887 12.1152 14.2456 10.4954C14.3613 10.1736 13.9175 9.62035 13.7503 9.32782C13.5881 9.04466 13.4049 8.72282 13.4884 8.31678C13.564 7.9519 14.5409 6.70883 14.8863 6.36891C15.1141 6.14437 15.3475 6.02087 15.5871 6.00091C16.4879 5.96224 17.4939 7.16415 17.6703 7.45168C18.1124 8.0648 18.1099 8.88062 17.6629 9.86984C16.5857 12.5269 12.5115 16.5368 9.84451 17.6545C9.35234 17.8846 8.90227 18 8.49801 18C8.10242 18 7.75016 17.8896 7.44743 17.6707C7.21899 17.5391 5.96782 16.4831 6.00063 15.5581C6.02044 15.3224 6.14364 15.0866 6.36527 14.8583C6.70267 14.5097 7.93774 13.5036 8.2999 13.4275" stroke="#9EB2D2"/>
<path d="M6.02963 10.5805C6.11289 10.6546 6.22703 10.6929 6.34599 10.6759C6.56038 10.6453 6.7093 10.4466 6.67865 10.2322C6.55217 9.34761 6.82002 8.45787 7.41347 7.79119C8.01939 7.11048 8.88977 6.74197 9.80146 6.78016C10.0179 6.78925 10.2006 6.6212 10.2096 6.40481C10.2187 6.18842 10.0506 6.00565 9.83432 5.99659C8.68656 5.94853 7.59068 6.41254 6.82769 7.26969C6.08035 8.10927 5.74305 9.2295 5.90229 10.3432C5.91595 10.4386 5.96285 10.521 6.02963 10.5805Z" fill="#9EB2D2"/>
<path d="M7.79171 9.90686C7.87497 9.98097 7.98911 10.0193 8.10807 10.0023C8.32249 9.97159 8.47141 9.77299 8.44077 9.55861C8.40527 9.31044 8.48039 9.06091 8.64677 8.874C8.81666 8.68315 9.06074 8.57982 9.31648 8.59055C9.53288 8.59964 9.71561 8.43155 9.7247 8.21516C9.73372 7.99884 9.5657 7.81603 9.34931 7.80694C8.85757 7.78634 8.38795 7.98521 8.06097 8.35255C7.74072 8.71231 7.59616 9.19241 7.66437 9.66954C7.67803 9.765 7.72493 9.84741 7.79171 9.90686Z" fill="#9EB2D2"/>
</svg>
