<svg width="24" height="24" viewBox="0 0 24 24" fill="none" xmlns="http://www.w3.org/2000/svg">
<circle cx="12" cy="12" r="12" fill="#9EB2D2"/>
<path d="M15.7001 13.4275C15.2971 13.3408 14.9782 13.5279 14.6959 13.6914C14.4068 13.8598 13.8571 14.3057 13.542 14.1916C11.9286 13.5273 10.4113 12.1152 9.75443 10.4954C9.63866 10.1736 10.0825 9.62035 10.2497 9.32782C10.4119 9.04466 10.5951 8.72282 10.5116 8.31678C10.436 7.9519 9.45913 6.70883 9.11368 6.36891C8.88586 6.14437 8.65247 6.02087 8.41288 6.00091C7.51212 5.96224 6.50611 7.16415 6.32967 7.45168C5.88765 8.0648 5.89012 8.88062 6.3371 9.86984C7.4143 12.5269 11.4885 16.5368 14.1555 17.6545C14.6477 17.8846 15.0977 18 15.502 18C15.8976 18 16.2498 17.8896 16.5526 17.6707C16.781 17.5391 18.0322 16.4831 17.9994 15.5581C17.9796 15.3224 17.8564 15.0866 17.6347 14.8583C17.2973 14.5097 16.0623 13.5036 15.7001 13.4275Z" fill="white"/>
</svg>
