<svg width="24" height="24" viewBox="0 0 24 24" fill="none" xmlns="http://www.w3.org/2000/svg">
<circle cx="12" cy="12" r="11.5" stroke="#9EB2D2"/>
<path className='receiver' d="M15.7001 13.4275C15.2971 13.3408 14.9782 13.5279 14.6959 13.6914C14.4068 13.8598 13.8571 14.3057 13.542 14.1916C11.9286 13.5273 10.4113 12.1152 9.75443 10.4954C9.63866 10.1736 10.0825 9.62035 10.2497 9.32782C10.4119 9.04466 10.5951 8.72282 10.5116 8.31678C10.436 7.9519 9.45913 6.70883 9.11368 6.36891C8.88586 6.14437 8.65247 6.02087 8.41288 6.00091C7.51212 5.96224 6.50611 7.16415 6.32967 7.45168C5.88765 8.0648 5.89012 8.88062 6.3371 9.86984C7.4143 12.5269 11.4885 16.5368 14.1555 17.6545C14.6477 17.8846 15.0977 18 15.502 18C15.8976 18 16.2498 17.8896 16.5526 17.6707C16.781 17.5391 18.0322 16.4831 17.9994 15.5581C17.9796 15.3224 17.8564 15.0866 17.6347 14.8583C17.2973 14.5097 16.0623 13.5036 15.7001 13.4275" stroke="#9EB2D2"/>
<path className='signal' d="M17.9704 10.5804C17.8871 10.6546 17.773 10.6929 17.654 10.6759C17.4396 10.6452 17.2907 10.4465 17.3213 10.2322C17.4478 9.34757 17.18 8.45783 16.5865 7.79114C15.9806 7.11044 15.1102 6.74193 14.1985 6.78012C13.9821 6.78921 13.7994 6.62116 13.7904 6.40477C13.7813 6.18837 13.9494 6.00561 14.1657 5.99655C15.3134 5.94848 16.4093 6.4125 17.1723 7.26965C17.9197 8.10923 18.2569 9.22946 18.0977 10.3431C18.0841 10.4386 18.0372 10.521 17.9704 10.5804Z" fill="#9EB2D2"/>
<path className='signal' d="M16.2083 9.90684C16.125 9.98096 16.0109 10.0193 15.8919 10.0023C15.6775 9.97158 15.5286 9.77298 15.5592 9.5586C15.5947 9.31042 15.5196 9.0609 15.3532 8.87399C15.1833 8.68313 14.9393 8.57981 14.6835 8.59053C14.4671 8.59962 14.2844 8.43154 14.2753 8.21514C14.2663 7.99883 14.4343 7.81602 14.6507 7.80693C15.1424 7.78633 15.6121 7.9852 15.939 8.35253C16.2593 8.7123 16.4038 9.19239 16.3356 9.66953C16.322 9.76498 16.2751 9.8474 16.2083 9.90684Z" fill="#9EB2D2"/>
</svg>
