<svg width="24" height="24" viewBox="0 0 24 24" fill="none" xmlns="http://www.w3.org/2000/svg">
<path d="M2.9987 19.7113L11.7419 4.56812C11.7421 4.56791 11.7422 4.5677 11.7423 4.56749C11.7686 4.52266 11.8061 4.48546 11.8512 4.45957C11.8965 4.43356 11.9478 4.41987 12 4.41987C12.0522 4.41987 12.1035 4.43356 12.1488 4.45957C12.1939 4.48544 12.2314 4.5226 12.2577 4.56738C12.2578 4.56763 12.2579 4.56788 12.2581 4.56812L21.0013 19.7113C21.0014 19.7115 21.0015 19.7117 21.0016 19.7118C21.0274 19.757 21.041 19.8082 21.0409 19.8603C21.0409 19.9126 21.0271 19.964 21.001 20.0093C20.9749 20.0546 20.9373 20.0922 20.8921 20.1184C20.847 20.1446 20.7958 20.1585 20.7437 20.1587C20.7435 20.1587 20.7434 20.1588 20.7432 20.1588H3.25677C3.25662 20.1588 3.25647 20.1587 3.25633 20.1587C3.2042 20.1585 3.15304 20.1446 3.10794 20.1184C3.06271 20.0922 3.02516 20.0546 2.99904 20.0093C2.97292 19.964 2.95914 19.9126 2.95908 19.8603C2.95902 19.8082 2.9726 19.757 2.99847 19.7117C2.99854 19.7116 2.99862 19.7115 2.9987 19.7113Z" fill="#EFCC00" stroke="black"/>
<path d="M10.875 17.25C10.875 17.0275 10.941 16.81 11.0646 16.625C11.1882 16.44 11.3639 16.2958 11.5695 16.2106C11.7751 16.1255 12.0013 16.1032 12.2195 16.1466C12.4377 16.19 12.6382 16.2972 12.7955 16.4545C12.9528 16.6118 13.06 16.8123 13.1034 17.0305C13.1468 17.2488 13.1245 17.475 13.0394 17.6805C12.9542 17.8861 12.81 18.0618 12.625 18.1854C12.44 18.309 12.2225 18.375 12 18.375C11.8506 18.3814 11.7014 18.3566 11.5621 18.3023C11.4227 18.2481 11.2961 18.1654 11.1903 18.0597C11.0846 17.9539 11.0019 17.8273 10.9477 17.6879C10.8934 17.5486 10.8686 17.3994 10.875 17.25V17.25ZM11.2838 15.5025L10.9988 9.8775H12.9713L12.6975 15.5025H11.2838Z" fill="#353535"/>
</svg>
