<svg width="70" height="70" viewBox="0 0 70 70" fill="none" xmlns="http://www.w3.org/2000/svg">
<g clip-path="url(#clip0)">
<path d="M20.2926 54.1851H49.7763V57.9325H20.2926V54.1851Z" fill="#B2B9BF"/>
<path d="M57.0732 66.8412L36.882 27.4202C36.5269 26.727 35.8134 26.2912 35.0347 26.2912C34.2555 26.2912 33.5426 26.727 33.1874 27.4202L15.4374 62.0752L19.1972 63.8403L35.0347 32.9199L53.378 68.7333C53.746 69.4511 54.4729 69.8634 55.2275 69.8634C55.5458 69.8634 55.8689 69.7897 56.1722 69.6348C57.1923 69.112 57.596 67.8612 57.0732 66.8412V66.8412Z" fill="#D7DEE3"/>
<path d="M62.7401 27.7075H57.7327C57.1581 27.7075 56.6919 27.2418 56.6919 26.6672C56.6919 26.092 57.1581 25.6263 57.7327 25.6263H62.7401C63.3147 25.6263 63.7804 26.092 63.7804 26.6672C63.7804 27.2418 63.3147 27.7075 62.7401 27.7075Z" fill="#B2B9BF"/>
<path d="M12.3367 27.7075H7.32935C6.7547 27.7075 6.289 27.2418 6.289 26.6672C6.289 26.092 6.7547 25.6263 7.32935 25.6263H12.3367C12.9119 25.6263 13.3776 26.092 13.3776 26.6672C13.3776 27.2418 12.9119 27.7075 12.3367 27.7075Z" fill="#B2B9BF"/>
<path d="M35.3567 44.9005H34.7127C21.8136 44.9005 11.3567 34.4436 11.3567 21.5445H58.7127C58.7127 34.4436 48.2559 44.9005 35.3567 44.9005V44.9005Z" fill="#6DD5DC"/>
<path d="M51.841 21.5445C51.841 33.3878 43.0258 43.1712 31.5991 44.6933C32.6176 44.8294 33.6568 44.9005 34.7127 44.9005H35.3568C48.2559 44.9005 58.7127 34.4436 58.7127 21.5445H51.841Z" fill="#52B0B6"/>
<path d="M60.2754 22.9229H9.79403C8.71897 22.9229 7.84738 22.0513 7.84738 20.9762C7.84738 19.9012 8.71897 19.0296 9.79403 19.0296H60.2754C61.3505 19.0296 62.2215 19.9012 62.2215 20.9762C62.222 22.0513 61.3505 22.9229 60.2754 22.9229Z" fill="#F0967D"/>
<path d="M60.2754 19.0296H55.3503V22.9229H60.2754C61.3505 22.9229 62.2215 22.0513 62.2215 20.9762C62.2215 19.9012 61.3505 19.0296 60.2754 19.0296Z" fill="#AF4E4B"/>
<path d="M22.1003 64.0496C22.1003 67.2604 19.4979 69.8634 16.2871 69.8634C13.0764 69.8634 10.4739 67.2604 10.4739 64.0496C10.4739 60.8394 13.0764 58.2364 16.2871 58.2364C19.4979 58.2364 22.1003 60.8394 22.1003 64.0496V64.0496Z" fill="#545464"/>
<path d="M18.6306 64.0497C18.6306 65.3442 17.5811 66.3931 16.2871 66.3931C14.9926 66.3931 13.9437 65.3442 13.9437 64.0497C13.9437 62.7556 14.9926 61.7062 16.2871 61.7062C17.5811 61.7062 18.6306 62.7556 18.6306 64.0497Z" fill="white"/>
<path d="M24.5303 15.3194C23.9557 15.3194 23.49 14.8538 23.49 14.2791C23.49 13.1154 24.0545 12.474 24.4283 12.0499C24.7247 11.7135 24.8476 11.5741 24.8476 11.1965C24.8476 10.8189 24.7247 10.6795 24.4283 10.3431C24.0545 9.91905 23.4894 9.27764 23.4894 8.11446C23.4894 6.95128 24.0545 6.30988 24.4283 5.88584C24.7247 5.54938 24.8476 5.40999 24.8476 5.03241C24.8476 4.45776 25.3133 3.99207 25.8879 3.99207C26.4625 3.99207 26.9282 4.45776 26.9282 5.03241C26.9282 6.19613 26.3637 6.837 25.9899 7.26157C25.6935 7.5975 25.5712 7.73688 25.5712 8.11446C25.5712 8.49204 25.6935 8.63143 25.9899 8.96789C26.3637 9.39193 26.9288 10.0333 26.9288 11.1965C26.9288 12.3602 26.3637 13.0011 25.9899 13.4257C25.6935 13.7621 25.5712 13.9015 25.5712 14.2791C25.5712 14.8538 25.105 15.3194 24.5303 15.3194Z" fill="#D7DEE3"/>
<path d="M44.1816 15.3194C43.6064 15.3194 43.1407 14.8538 43.1407 14.2791C43.1407 13.1154 43.7057 12.474 44.0795 12.0499C44.3754 11.7135 44.4983 11.5741 44.4983 11.1965C44.4983 10.8189 44.3754 10.6795 44.079 10.3431C43.7057 9.91905 43.1407 9.27764 43.1407 8.11446C43.1407 6.95128 43.7057 6.30988 44.0795 5.88584C44.3754 5.54938 44.4983 5.40999 44.4983 5.03241C44.4983 4.45776 44.964 3.99207 45.5391 3.99207C46.1138 3.99207 46.5795 4.45776 46.5795 5.03241C46.5795 6.19613 46.0144 6.837 45.6411 7.26157C45.3447 7.5975 45.2219 7.73688 45.2219 8.11446C45.2219 8.49204 45.3447 8.63143 45.6411 8.96789C46.015 9.39193 46.5795 10.0333 46.5795 11.1965C46.5795 12.3602 46.015 13.0011 45.6411 13.4257C45.3447 13.7621 45.2219 13.9015 45.2219 14.2791C45.2219 14.8538 44.7562 15.3194 44.1816 15.3194V15.3194Z" fill="#D7DEE3"/>
<path d="M34.3559 11.1907C33.7813 11.1907 33.315 10.725 33.315 10.1503C33.315 8.98661 33.8801 8.34574 34.2539 7.92116C34.5503 7.5847 34.6732 7.44585 34.6732 7.06773C34.6732 6.69015 34.5503 6.5513 34.2539 6.21484C33.8801 5.79026 33.315 5.14939 33.315 3.98568C33.315 2.8225 33.8801 2.1811 34.2539 1.75705C34.5503 1.4206 34.6732 1.28121 34.6732 0.903628C34.6732 0.32898 35.1389 -0.136719 35.7135 -0.136719C36.2881 -0.136719 36.7544 0.32898 36.7544 0.903628C36.7544 2.06734 36.1893 2.70821 35.8155 3.13279C35.5191 3.46871 35.3968 3.6081 35.3968 3.98568C35.3968 4.36326 35.5191 4.50265 35.8155 4.83911C36.1893 5.26315 36.7544 5.90455 36.7544 7.06773C36.7544 8.23145 36.1893 8.87285 35.8155 9.29689C35.5191 9.63335 35.3968 9.77274 35.3968 10.1503C35.3968 10.725 34.9306 11.1907 34.3559 11.1907Z" fill="#D7DEE3"/>
</g>
<defs>
<clipPath id="clip0">
<rect width="70" height="70" fill="white"/>
</clipPath>
</defs>
</svg>
