<svg width="357" height="33" viewBox="0 0 357 33" fill="none" xmlns="http://www.w3.org/2000/svg">
<path d="M3.49805 5.73438V8.63477C3.49609 9.03711 3.36914 9.36621 3.11719 9.62207C2.86719 9.87793 2.52734 10.0215 2.09766 10.0527L1.94824 10.0586C1.48145 10.0586 1.10938 9.93262 0.832031 9.68066C0.554688 9.42871 0.414062 9.08203 0.410156 8.64062V5.73438H0.966797V8.62305C0.966797 8.93164 1.05176 9.17188 1.22168 9.34375C1.3916 9.51367 1.63379 9.59863 1.94824 9.59863C2.2666 9.59863 2.50977 9.51367 2.67773 9.34375C2.84766 9.17383 2.93262 8.93457 2.93262 8.62598V5.73438H3.49805ZM6.97852 8.4502C6.97852 8.93262 6.86816 9.32129 6.64746 9.61621C6.42676 9.91113 6.12793 10.0586 5.75098 10.0586C5.36621 10.0586 5.06348 9.93652 4.84277 9.69238V11.2188H4.30078V6.83008H4.7959L4.82227 7.18164C5.04297 6.9082 5.34961 6.77148 5.74219 6.77148C6.12305 6.77148 6.42383 6.91504 6.64453 7.20215C6.86719 7.48926 6.97852 7.88867 6.97852 8.40039V8.4502ZM6.43652 8.38867C6.43652 8.03125 6.36035 7.74902 6.20801 7.54199C6.05566 7.33496 5.84668 7.23145 5.58105 7.23145C5.25293 7.23145 5.00684 7.37695 4.84277 7.66797V9.18262C5.00488 9.47168 5.25293 9.61621 5.58691 9.61621C5.84668 9.61621 6.05273 9.51367 6.20508 9.30859C6.35938 9.10156 6.43652 8.79492 6.43652 8.38867ZM11.1152 10C11.084 9.9375 11.0586 9.82617 11.0391 9.66602C10.7871 9.92773 10.4863 10.0586 10.1367 10.0586C9.82422 10.0586 9.56738 9.9707 9.36621 9.79492C9.16699 9.61719 9.06738 9.39258 9.06738 9.12109C9.06738 8.79102 9.19238 8.53516 9.44238 8.35352C9.69434 8.16992 10.0479 8.07812 10.5029 8.07812H11.0303V7.8291C11.0303 7.63965 10.9736 7.48926 10.8604 7.37793C10.7471 7.26465 10.5801 7.20801 10.3594 7.20801C10.166 7.20801 10.0039 7.25684 9.87305 7.35449C9.74219 7.45215 9.67676 7.57031 9.67676 7.70898H9.13184C9.13184 7.55078 9.1875 7.39844 9.29883 7.25195C9.41211 7.10352 9.56445 6.98633 9.75586 6.90039C9.94922 6.81445 10.1611 6.77148 10.3916 6.77148C10.7568 6.77148 11.043 6.86328 11.25 7.04688C11.457 7.22852 11.5645 7.47949 11.5723 7.7998V9.25879C11.5723 9.5498 11.6094 9.78125 11.6836 9.95312V10H11.1152ZM10.2158 9.58691C10.3857 9.58691 10.5469 9.54297 10.6992 9.45508C10.8516 9.36719 10.9619 9.25293 11.0303 9.1123V8.46191H10.6055C9.94141 8.46191 9.60938 8.65625 9.60938 9.04492C9.60938 9.21484 9.66602 9.34766 9.7793 9.44336C9.89258 9.53906 10.0381 9.58691 10.2158 9.58691ZM13.1572 6.0625V6.83008H13.749V7.24902H13.1572V9.21484C13.1572 9.3418 13.1836 9.4375 13.2363 9.50195C13.2891 9.56445 13.3789 9.5957 13.5059 9.5957C13.5684 9.5957 13.6543 9.58398 13.7637 9.56055V10C13.6211 10.0391 13.4824 10.0586 13.3477 10.0586C13.1055 10.0586 12.9229 9.98535 12.7998 9.83887C12.6768 9.69238 12.6152 9.48438 12.6152 9.21484V7.24902H12.0381V6.83008H12.6152V6.0625H13.1572ZM19.2363 10H18.6709L16.5234 6.71289V10H15.958V5.73438H16.5234L18.6768 9.03613V5.73438H19.2363V10ZM20.7393 10H20.1973V6.83008H20.7393V10ZM20.1533 5.98926C20.1533 5.90137 20.1797 5.82715 20.2324 5.7666C20.2871 5.70605 20.3672 5.67578 20.4727 5.67578C20.5781 5.67578 20.6582 5.70605 20.7129 5.7666C20.7676 5.82715 20.7949 5.90137 20.7949 5.98926C20.7949 6.07715 20.7676 6.15039 20.7129 6.20898C20.6582 6.26758 20.5781 6.29688 20.4727 6.29688C20.3672 6.29688 20.2871 6.26758 20.2324 6.20898C20.1797 6.15039 20.1533 6.07715 20.1533 5.98926ZM21.4805 8.38867C21.4805 7.89453 21.5947 7.50195 21.8232 7.21094C22.0518 6.91797 22.3545 6.77148 22.7314 6.77148C23.1182 6.77148 23.4199 6.9082 23.6367 7.18164L23.6631 6.83008H24.1582V9.92383C24.1582 10.334 24.0361 10.6572 23.792 10.8936C23.5498 11.1299 23.2236 11.248 22.8135 11.248C22.585 11.248 22.3613 11.1992 22.1426 11.1016C21.9238 11.0039 21.7568 10.8701 21.6416 10.7002L21.9229 10.375C22.1553 10.6621 22.4395 10.8057 22.7754 10.8057C23.0391 10.8057 23.2441 10.7314 23.3906 10.583C23.5391 10.4346 23.6133 10.2256 23.6133 9.95605V9.68359C23.3965 9.93359 23.1006 10.0586 22.7256 10.0586C22.3545 10.0586 22.0537 9.90918 21.8232 9.61035C21.5947 9.31152 21.4805 8.9043 21.4805 8.38867ZM22.0254 8.4502C22.0254 8.80762 22.0986 9.08887 22.2451 9.29395C22.3916 9.49707 22.5967 9.59863 22.8604 9.59863C23.2021 9.59863 23.4531 9.44336 23.6133 9.13281V7.68555C23.4473 7.38281 23.1982 7.23145 22.8662 7.23145C22.6025 7.23145 22.3965 7.33398 22.248 7.53906C22.0996 7.74414 22.0254 8.04785 22.0254 8.4502ZM25.5205 7.21387C25.7607 6.91895 26.0732 6.77148 26.458 6.77148C27.1279 6.77148 27.4658 7.14941 27.4717 7.90527V10H26.9297V7.90234C26.9277 7.67383 26.875 7.50488 26.7715 7.39551C26.6699 7.28613 26.5107 7.23145 26.2939 7.23145C26.1182 7.23145 25.9639 7.27832 25.8311 7.37207C25.6982 7.46582 25.5947 7.58887 25.5205 7.74121V10H24.9785V5.5H25.5205V7.21387ZM29.0186 6.0625V6.83008H29.6104V7.24902H29.0186V9.21484C29.0186 9.3418 29.0449 9.4375 29.0977 9.50195C29.1504 9.56445 29.2402 9.5957 29.3672 9.5957C29.4297 9.5957 29.5156 9.58398 29.625 9.56055V10C29.4824 10.0391 29.3438 10.0586 29.209 10.0586C28.9668 10.0586 28.7842 9.98535 28.6611 9.83887C28.5381 9.69238 28.4766 9.48438 28.4766 9.21484V7.24902H27.8994V6.83008H28.4766V6.0625H29.0186Z" fill="#707070"/>
<rect x="36" y="6.60001" width="38.1333" height="4.4" rx="2.2" fill="#49DEB8"/>
<path d="M51.3758 2.21173L56.6029 2.21145L53.9891 6.04227L51.3758 2.21173Z" fill="#F0967D"/>
<path d="M81.416 7.90234L81.6621 5.73438H84.0527V6.44043H82.3564L82.251 7.35742C82.4521 7.25 82.666 7.19629 82.8926 7.19629C83.2988 7.19629 83.6172 7.32227 83.8477 7.57422C84.0781 7.82617 84.1934 8.17871 84.1934 8.63184C84.1934 8.90723 84.1348 9.1543 84.0176 9.37305C83.9023 9.58984 83.7363 9.75879 83.5195 9.87988C83.3027 9.99902 83.0469 10.0586 82.752 10.0586C82.4941 10.0586 82.2549 10.0068 82.0342 9.90332C81.8135 9.79785 81.6387 9.65039 81.5098 9.46094C81.3828 9.27148 81.3154 9.05566 81.3076 8.81348H82.1455C82.1631 8.99121 82.2246 9.12988 82.3301 9.22949C82.4375 9.32715 82.5771 9.37598 82.749 9.37598C82.9404 9.37598 83.0879 9.30762 83.1914 9.1709C83.2949 9.03223 83.3467 8.83691 83.3467 8.58496C83.3467 8.34277 83.2871 8.15723 83.168 8.02832C83.0488 7.89941 82.8799 7.83496 82.6611 7.83496C82.46 7.83496 82.2969 7.8877 82.1719 7.99316L82.0898 8.06934L81.416 7.90234Z" fill="#707070"/>
<path d="M1.41504 28.6553L1.49707 29.2178L1.61719 28.7109L2.46094 25.7344H2.93555L3.75879 28.7109L3.87598 29.2266L3.9668 28.6523L4.62891 25.7344H5.19434L4.16016 30H3.64746L2.76855 26.8916L2.70117 26.5664L2.63379 26.8916L1.72266 30H1.20996L0.178711 25.7344H0.741211L1.41504 28.6553ZM7.59375 30C7.5625 29.9375 7.53711 29.8262 7.51758 29.666C7.26562 29.9277 6.96484 30.0586 6.61523 30.0586C6.30273 30.0586 6.0459 29.9707 5.84473 29.7949C5.64551 29.6172 5.5459 29.3926 5.5459 29.1211C5.5459 28.791 5.6709 28.5352 5.9209 28.3535C6.17285 28.1699 6.52637 28.0781 6.98145 28.0781H7.50879V27.8291C7.50879 27.6396 7.45215 27.4893 7.33887 27.3779C7.22559 27.2646 7.05859 27.208 6.83789 27.208C6.64453 27.208 6.48242 27.2568 6.35156 27.3545C6.2207 27.4521 6.15527 27.5703 6.15527 27.709H5.61035C5.61035 27.5508 5.66602 27.3984 5.77734 27.252C5.89062 27.1035 6.04297 26.9863 6.23438 26.9004C6.42773 26.8145 6.63965 26.7715 6.87012 26.7715C7.23535 26.7715 7.52148 26.8633 7.72852 27.0469C7.93555 27.2285 8.04297 27.4795 8.05078 27.7998V29.2588C8.05078 29.5498 8.08789 29.7812 8.16211 29.9531V30H7.59375ZM6.69434 29.5869C6.86426 29.5869 7.02539 29.543 7.17773 29.4551C7.33008 29.3672 7.44043 29.2529 7.50879 29.1123V28.4619H7.08398C6.41992 28.4619 6.08789 28.6562 6.08789 29.0449C6.08789 29.2148 6.14453 29.3477 6.25781 29.4434C6.37109 29.5391 6.5166 29.5869 6.69434 29.5869ZM9.78516 28.5322L9.44531 28.8867V30H8.90332V25.5H9.44531V28.2217L9.73535 27.873L10.7227 26.8301H11.3818L10.1484 28.1543L11.5254 30H10.8896L9.78516 28.5322ZM13.1982 30.0586C12.7686 30.0586 12.4189 29.918 12.1494 29.6367C11.8799 29.3535 11.7451 28.9756 11.7451 28.5029V28.4033C11.7451 28.0889 11.8047 27.8086 11.9238 27.5625C12.0449 27.3145 12.2129 27.1211 12.4277 26.9824C12.6445 26.8418 12.8789 26.7715 13.1309 26.7715C13.543 26.7715 13.8633 26.9072 14.0918 27.1787C14.3203 27.4502 14.4346 27.8389 14.4346 28.3447V28.5703H12.2871C12.2949 28.8828 12.3857 29.1357 12.5596 29.3291C12.7354 29.5205 12.958 29.6162 13.2275 29.6162C13.4189 29.6162 13.5811 29.5771 13.7139 29.499C13.8467 29.4209 13.9629 29.3174 14.0625 29.1885L14.3936 29.4463C14.1279 29.8545 13.7295 30.0586 13.1982 30.0586ZM13.1309 27.2168C12.9121 27.2168 12.7285 27.2969 12.5801 27.457C12.4316 27.6152 12.3398 27.8379 12.3047 28.125H13.8926V28.084C13.877 27.8086 13.8027 27.5957 13.6699 27.4453C13.5371 27.293 13.3574 27.2168 13.1309 27.2168ZM19.6406 25.7344V28.6348C19.6387 29.0371 19.5117 29.3662 19.2598 29.6221C19.0098 29.8779 18.6699 30.0215 18.2402 30.0527L18.0908 30.0586C17.624 30.0586 17.252 29.9326 16.9746 29.6807C16.6973 29.4287 16.5566 29.082 16.5527 28.6406V25.7344H17.1094V28.623C17.1094 28.9316 17.1943 29.1719 17.3643 29.3438C17.5342 29.5137 17.7764 29.5986 18.0908 29.5986C18.4092 29.5986 18.6523 29.5137 18.8203 29.3438C18.9902 29.1738 19.0752 28.9346 19.0752 28.626V25.7344H19.6406ZM23.1211 28.4502C23.1211 28.9326 23.0107 29.3213 22.79 29.6162C22.5693 29.9111 22.2705 30.0586 21.8936 30.0586C21.5088 30.0586 21.2061 29.9365 20.9854 29.6924V31.2188H20.4434V26.8301H20.9385L20.9648 27.1816C21.1855 26.9082 21.4922 26.7715 21.8848 26.7715C22.2656 26.7715 22.5664 26.915 22.7871 27.2021C23.0098 27.4893 23.1211 27.8887 23.1211 28.4004V28.4502ZM22.5791 28.3887C22.5791 28.0312 22.5029 27.749 22.3506 27.542C22.1982 27.335 21.9893 27.2314 21.7236 27.2314C21.3955 27.2314 21.1494 27.377 20.9854 27.668V29.1826C21.1475 29.4717 21.3955 29.6162 21.7295 29.6162C21.9893 29.6162 22.1953 29.5137 22.3477 29.3086C22.502 29.1016 22.5791 28.7949 22.5791 28.3887Z" fill="#707070"/>
<rect x="36" y="26.6" width="38.1333" height="4.4" rx="2.2" fill="#49DEB8"/>
<path d="M51.3758 22.2117L56.6029 22.2114L53.9891 26.0423L51.3758 22.2117Z" fill="#F0967D"/>
<path d="M84.1611 28.2363C84.1611 28.8262 84.0391 29.2773 83.7949 29.5898C83.5508 29.9023 83.1934 30.0586 82.7227 30.0586C82.2578 30.0586 81.9023 29.9053 81.6562 29.5986C81.4102 29.292 81.2842 28.8525 81.2783 28.2803V27.4951C81.2783 26.8994 81.4014 26.4473 81.6475 26.1387C81.8955 25.8301 82.252 25.6758 82.7168 25.6758C83.1816 25.6758 83.5371 25.8291 83.7832 26.1357C84.0293 26.4404 84.1553 26.8789 84.1611 27.4512V28.2363ZM83.3145 27.375C83.3145 27.0215 83.2656 26.7646 83.168 26.6045C83.0723 26.4424 82.9219 26.3613 82.7168 26.3613C82.5176 26.3613 82.3701 26.4385 82.2744 26.5928C82.1807 26.7451 82.1309 26.9844 82.125 27.3105V28.3477C82.125 28.6953 82.1719 28.9541 82.2656 29.124C82.3613 29.292 82.5137 29.376 82.7227 29.376C82.9297 29.376 83.0791 29.2949 83.1709 29.1328C83.2627 28.9707 83.3105 28.7227 83.3145 28.3887V27.375ZM87.5156 26.8682C87.5156 27.0752 87.4639 27.2588 87.3604 27.4189C87.2568 27.5791 87.1143 27.707 86.9326 27.8027C87.1396 27.9023 87.3037 28.04 87.4248 28.2158C87.5459 28.3896 87.6064 28.5947 87.6064 28.8311C87.6064 29.21 87.4775 29.5098 87.2197 29.7305C86.9619 29.9492 86.6113 30.0586 86.168 30.0586C85.7246 30.0586 85.373 29.9482 85.1133 29.7275C84.8535 29.5068 84.7236 29.208 84.7236 28.8311C84.7236 28.5947 84.7842 28.3887 84.9053 28.2129C85.0264 28.0371 85.1895 27.9004 85.3945 27.8027C85.2129 27.707 85.0703 27.5791 84.9668 27.4189C84.8652 27.2588 84.8145 27.0752 84.8145 26.8682C84.8145 26.5049 84.9355 26.2158 85.1777 26.001C85.4199 25.7842 85.749 25.6758 86.165 25.6758C86.5791 25.6758 86.9072 25.7832 87.1494 25.998C87.3936 26.2109 87.5156 26.501 87.5156 26.8682ZM86.7568 28.7695C86.7568 28.584 86.7031 28.4355 86.5957 28.3242C86.4883 28.2129 86.3438 28.1572 86.1621 28.1572C85.9824 28.1572 85.8389 28.2129 85.7314 28.3242C85.624 28.4336 85.5703 28.582 85.5703 28.7695C85.5703 28.9512 85.623 29.0977 85.7285 29.209C85.834 29.3203 85.9805 29.376 86.168 29.376C86.3516 29.376 86.4951 29.3223 86.5986 29.2148C86.7041 29.1074 86.7568 28.959 86.7568 28.7695ZM86.6689 26.9092C86.6689 26.7432 86.625 26.6104 86.5371 26.5107C86.4492 26.4092 86.3252 26.3584 86.165 26.3584C86.0068 26.3584 85.8838 26.4072 85.7959 26.5049C85.708 26.6025 85.6641 26.7373 85.6641 26.9092C85.6641 27.0791 85.708 27.2158 85.7959 27.3193C85.8838 27.4229 86.0078 27.4746 86.168 27.4746C86.3281 27.4746 86.4512 27.4229 86.5371 27.3193C86.625 27.2158 86.6689 27.0791 86.6689 26.9092ZM88.2568 29.584C88.2568 29.4492 88.3018 29.3398 88.3916 29.2559C88.4834 29.1719 88.5977 29.1299 88.7344 29.1299C88.873 29.1299 88.9873 29.1719 89.0771 29.2559C89.1689 29.3398 89.2148 29.4492 89.2148 29.584C89.2148 29.7168 89.1699 29.8252 89.0801 29.9092C88.9902 29.9912 88.875 30.0322 88.7344 30.0322C88.5957 30.0322 88.4814 29.9912 88.3916 29.9092C88.3018 29.8252 88.2568 29.7168 88.2568 29.584ZM88.2568 27.1846C88.2568 27.0498 88.3018 26.9404 88.3916 26.8564C88.4834 26.7725 88.5977 26.7305 88.7344 26.7305C88.873 26.7305 88.9873 26.7725 89.0771 26.8564C89.1689 26.9404 89.2148 27.0498 89.2148 27.1846C89.2148 27.3174 89.1699 27.4258 89.0801 27.5098C88.9902 27.5918 88.875 27.6328 88.7344 27.6328C88.5957 27.6328 88.4814 27.5918 88.3916 27.5098C88.3018 27.4258 88.2568 27.3174 88.2568 27.1846ZM92.7451 28.2363C92.7451 28.8262 92.623 29.2773 92.3789 29.5898C92.1348 29.9023 91.7773 30.0586 91.3066 30.0586C90.8418 30.0586 90.4863 29.9053 90.2402 29.5986C89.9941 29.292 89.8682 28.8525 89.8623 28.2803V27.4951C89.8623 26.8994 89.9854 26.4473 90.2314 26.1387C90.4795 25.8301 90.8359 25.6758 91.3008 25.6758C91.7656 25.6758 92.1211 25.8291 92.3672 26.1357C92.6133 26.4404 92.7393 26.8789 92.7451 27.4512V28.2363ZM91.8984 27.375C91.8984 27.0215 91.8496 26.7646 91.752 26.6045C91.6562 26.4424 91.5059 26.3613 91.3008 26.3613C91.1016 26.3613 90.9541 26.4385 90.8584 26.5928C90.7646 26.7451 90.7148 26.9844 90.709 27.3105V28.3477C90.709 28.6953 90.7559 28.9541 90.8496 29.124C90.9453 29.292 91.0977 29.376 91.3066 29.376C91.5137 29.376 91.6631 29.2949 91.7549 29.1328C91.8467 28.9707 91.8945 28.7227 91.8984 28.3887V27.375ZM96.1904 28.2363C96.1904 28.8262 96.0684 29.2773 95.8242 29.5898C95.5801 29.9023 95.2227 30.0586 94.752 30.0586C94.2871 30.0586 93.9316 29.9053 93.6855 29.5986C93.4395 29.292 93.3135 28.8525 93.3076 28.2803V27.4951C93.3076 26.8994 93.4307 26.4473 93.6768 26.1387C93.9248 25.8301 94.2812 25.6758 94.7461 25.6758C95.2109 25.6758 95.5664 25.8291 95.8125 26.1357C96.0586 26.4404 96.1846 26.8789 96.1904 27.4512V28.2363ZM95.3438 27.375C95.3438 27.0215 95.2949 26.7646 95.1973 26.6045C95.1016 26.4424 94.9512 26.3613 94.7461 26.3613C94.5469 26.3613 94.3994 26.4385 94.3037 26.5928C94.21 26.7451 94.1602 26.9844 94.1543 27.3105V28.3477C94.1543 28.6953 94.2012 28.9541 94.2949 29.124C94.3906 29.292 94.543 29.376 94.752 29.376C94.959 29.376 95.1084 29.2949 95.2002 29.1328C95.292 28.9707 95.3398 28.7227 95.3438 28.3887V27.375Z" fill="#707070"/>
<path d="M131.061 9.54004H133.082V10H130.495V5.73438H131.061V9.54004ZM134.954 10.0586C134.524 10.0586 134.175 9.91797 133.905 9.63672C133.636 9.35352 133.501 8.97559 133.501 8.50293V8.40332C133.501 8.08887 133.561 7.80859 133.68 7.5625C133.801 7.31445 133.969 7.12109 134.184 6.98242C134.4 6.8418 134.635 6.77148 134.887 6.77148C135.299 6.77148 135.619 6.90723 135.848 7.17871C136.076 7.4502 136.19 7.83887 136.19 8.34473V8.57031H134.043C134.051 8.88281 134.142 9.13574 134.315 9.3291C134.491 9.52051 134.714 9.61621 134.983 9.61621C135.175 9.61621 135.337 9.57715 135.47 9.49902C135.603 9.4209 135.719 9.31738 135.818 9.18848L136.149 9.44629C135.884 9.85449 135.485 10.0586 134.954 10.0586ZM134.887 7.2168C134.668 7.2168 134.484 7.29688 134.336 7.45703C134.188 7.61523 134.096 7.83789 134.061 8.125H135.648V8.08398C135.633 7.80859 135.559 7.5957 135.426 7.44531C135.293 7.29297 135.113 7.2168 134.887 7.2168ZM137.087 10V7.24902H136.586V6.83008H137.087V6.50488C137.087 6.16504 137.178 5.90234 137.359 5.7168C137.541 5.53125 137.798 5.43848 138.13 5.43848C138.255 5.43848 138.379 5.45508 138.502 5.48828L138.473 5.92773C138.381 5.91016 138.283 5.90137 138.18 5.90137C138.004 5.90137 137.868 5.95312 137.772 6.05664C137.677 6.1582 137.629 6.30469 137.629 6.49609V6.83008H138.306V7.24902H137.629V10H137.087ZM139.642 6.0625V6.83008H140.233V7.24902H139.642V9.21484C139.642 9.3418 139.668 9.4375 139.721 9.50195C139.773 9.56445 139.863 9.5957 139.99 9.5957C140.053 9.5957 140.139 9.58398 140.248 9.56055V10C140.105 10.0391 139.967 10.0586 139.832 10.0586C139.59 10.0586 139.407 9.98535 139.284 9.83887C139.161 9.69238 139.1 9.48438 139.1 9.21484V7.24902H138.522V6.83008H139.1V6.0625H139.642ZM144.007 8.27441H143.005V10H142.439V5.73438H143.852C144.332 5.73438 144.701 5.84375 144.959 6.0625C145.219 6.28125 145.349 6.59961 145.349 7.01758C145.349 7.2832 145.276 7.51465 145.132 7.71191C144.989 7.90918 144.79 8.05664 144.534 8.1543L145.536 9.96484V10H144.933L144.007 8.27441ZM143.005 7.81445H143.869C144.148 7.81445 144.37 7.74219 144.534 7.59766C144.7 7.45312 144.783 7.25977 144.783 7.01758C144.783 6.75391 144.704 6.55176 144.546 6.41113C144.39 6.27051 144.163 6.19922 143.866 6.19727H143.005V7.81445ZM145.911 8.38574C145.911 8.0752 145.972 7.7959 146.093 7.54785C146.216 7.2998 146.386 7.1084 146.603 6.97363C146.821 6.83887 147.07 6.77148 147.35 6.77148C147.781 6.77148 148.13 6.9209 148.396 7.21973C148.663 7.51855 148.797 7.91602 148.797 8.41211V8.4502C148.797 8.75879 148.737 9.03613 148.618 9.28223C148.501 9.52637 148.332 9.7168 148.111 9.85352C147.893 9.99023 147.641 10.0586 147.355 10.0586C146.926 10.0586 146.577 9.90918 146.31 9.61035C146.044 9.31152 145.911 8.91602 145.911 8.42383V8.38574ZM146.456 8.4502C146.456 8.80176 146.537 9.08398 146.699 9.29688C146.863 9.50977 147.082 9.61621 147.355 9.61621C147.631 9.61621 147.85 9.50879 148.012 9.29395C148.174 9.07715 148.255 8.77441 148.255 8.38574C148.255 8.03809 148.172 7.75684 148.006 7.54199C147.842 7.3252 147.623 7.2168 147.35 7.2168C147.082 7.2168 146.866 7.32324 146.702 7.53613C146.538 7.74902 146.456 8.05371 146.456 8.4502ZM149.333 8.38574C149.333 8.0752 149.394 7.7959 149.515 7.54785C149.638 7.2998 149.808 7.1084 150.024 6.97363C150.243 6.83887 150.492 6.77148 150.771 6.77148C151.203 6.77148 151.552 6.9209 151.817 7.21973C152.085 7.51855 152.219 7.91602 152.219 8.41211V8.4502C152.219 8.75879 152.159 9.03613 152.04 9.28223C151.923 9.52637 151.754 9.7168 151.533 9.85352C151.314 9.99023 151.062 10.0586 150.777 10.0586C150.348 10.0586 149.999 9.90918 149.731 9.61035C149.466 9.31152 149.333 8.91602 149.333 8.42383V8.38574ZM149.878 8.4502C149.878 8.80176 149.959 9.08398 150.121 9.29688C150.285 9.50977 150.504 9.61621 150.777 9.61621C151.053 9.61621 151.271 9.50879 151.434 9.29395C151.596 9.07715 151.677 8.77441 151.677 8.38574C151.677 8.03809 151.594 7.75684 151.428 7.54199C151.264 7.3252 151.045 7.2168 150.771 7.2168C150.504 7.2168 150.288 7.32324 150.124 7.53613C149.96 7.74902 149.878 8.05371 149.878 8.4502ZM153.408 6.83008L153.423 7.18164C153.655 6.9082 153.969 6.77148 154.363 6.77148C154.807 6.77148 155.108 6.94141 155.269 7.28125C155.374 7.12891 155.511 7.00586 155.679 6.91211C155.849 6.81836 156.049 6.77148 156.279 6.77148C156.975 6.77148 157.328 7.13965 157.34 7.87598V10H156.798V7.9082C156.798 7.68164 156.746 7.5127 156.643 7.40137C156.539 7.28809 156.365 7.23145 156.121 7.23145C155.92 7.23145 155.753 7.29199 155.62 7.41309C155.487 7.53223 155.41 7.69336 155.389 7.89648V10H154.844V7.92285C154.844 7.46191 154.618 7.23145 154.167 7.23145C153.812 7.23145 153.568 7.38281 153.438 7.68555V10H152.896V6.83008H153.408Z" fill="#707070"/>
<rect x="166" y="6.60001" width="38.1333" height="4.4" rx="2.2" fill="#49DEB8"/>
<path d="M181.376 2.21173L186.603 2.21145L183.989 6.04227L181.376 2.21173Z" fill="#F0967D"/>
<path d="M214.214 10H211.29V9.41992L212.67 7.94922C212.859 7.74219 212.999 7.56152 213.089 7.40723C213.181 7.25293 213.227 7.10645 213.227 6.96777C213.227 6.77832 213.179 6.62988 213.083 6.52246C212.987 6.41309 212.851 6.3584 212.673 6.3584C212.481 6.3584 212.33 6.4248 212.219 6.55762C212.109 6.68848 212.055 6.86133 212.055 7.07617H211.205C211.205 6.81641 211.267 6.5791 211.39 6.36426C211.515 6.14941 211.69 5.98145 211.917 5.86035C212.144 5.7373 212.4 5.67578 212.688 5.67578C213.127 5.67578 213.468 5.78125 213.71 5.99219C213.954 6.20312 214.076 6.50098 214.076 6.88574C214.076 7.09668 214.021 7.31152 213.912 7.53027C213.803 7.74902 213.615 8.00391 213.35 8.29492L212.38 9.31738H214.214V10Z" fill="#707070"/>
<path d="M130.495 30V25.7344H131.89C132.353 25.7344 132.7 25.8301 132.933 26.0215C133.167 26.2129 133.284 26.4961 133.284 26.8711C133.284 27.0703 133.228 27.2471 133.114 27.4014C133.001 27.5537 132.847 27.6719 132.651 27.7559C132.882 27.8203 133.063 27.9434 133.196 28.125C133.331 28.3047 133.398 28.5195 133.398 28.7695C133.398 29.1523 133.274 29.4531 133.026 29.6719C132.778 29.8906 132.428 30 131.975 30H130.495ZM131.058 28.0049V29.54H131.986C132.248 29.54 132.454 29.4727 132.604 29.3379C132.757 29.2012 132.833 29.0137 132.833 28.7754C132.833 28.2617 132.554 28.0049 131.995 28.0049H131.058ZM131.058 27.5537H131.907C132.153 27.5537 132.35 27.4922 132.496 27.3691C132.645 27.2461 132.719 27.0791 132.719 26.8682C132.719 26.6338 132.65 26.4639 132.514 26.3584C132.377 26.251 132.169 26.1973 131.89 26.1973H131.058V27.5537ZM135.681 27.3164C135.599 27.3027 135.51 27.2959 135.414 27.2959C135.059 27.2959 134.817 27.4473 134.69 27.75V30H134.148V26.8301H134.676L134.685 27.1963C134.862 26.9131 135.114 26.7715 135.44 26.7715C135.546 26.7715 135.626 26.7852 135.681 26.8125V27.3164ZM137.438 30.0586C137.009 30.0586 136.659 29.918 136.39 29.6367C136.12 29.3535 135.985 28.9756 135.985 28.5029V28.4033C135.985 28.0889 136.045 27.8086 136.164 27.5625C136.285 27.3145 136.453 27.1211 136.668 26.9824C136.885 26.8418 137.119 26.7715 137.371 26.7715C137.783 26.7715 138.104 26.9072 138.332 27.1787C138.561 27.4502 138.675 27.8389 138.675 28.3447V28.5703H136.527C136.535 28.8828 136.626 29.1357 136.8 29.3291C136.976 29.5205 137.198 29.6162 137.468 29.6162C137.659 29.6162 137.821 29.5771 137.954 29.499C138.087 29.4209 138.203 29.3174 138.303 29.1885L138.634 29.4463C138.368 29.8545 137.97 30.0586 137.438 30.0586ZM137.371 27.2168C137.152 27.2168 136.969 27.2969 136.82 27.457C136.672 27.6152 136.58 27.8379 136.545 28.125H138.133V28.084C138.117 27.8086 138.043 27.5957 137.91 27.4453C137.777 27.293 137.598 27.2168 137.371 27.2168ZM141.262 30C141.23 29.9375 141.205 29.8262 141.186 29.666C140.934 29.9277 140.633 30.0586 140.283 30.0586C139.971 30.0586 139.714 29.9707 139.513 29.7949C139.313 29.6172 139.214 29.3926 139.214 29.1211C139.214 28.791 139.339 28.5352 139.589 28.3535C139.841 28.1699 140.194 28.0781 140.649 28.0781H141.177V27.8291C141.177 27.6396 141.12 27.4893 141.007 27.3779C140.894 27.2646 140.727 27.208 140.506 27.208C140.312 27.208 140.15 27.2568 140.02 27.3545C139.889 27.4521 139.823 27.5703 139.823 27.709H139.278C139.278 27.5508 139.334 27.3984 139.445 27.252C139.559 27.1035 139.711 26.9863 139.902 26.9004C140.096 26.8145 140.308 26.7715 140.538 26.7715C140.903 26.7715 141.189 26.8633 141.396 27.0469C141.604 27.2285 141.711 27.4795 141.719 27.7998V29.2588C141.719 29.5498 141.756 29.7812 141.83 29.9531V30H141.262ZM140.362 29.5869C140.532 29.5869 140.693 29.543 140.846 29.4551C140.998 29.3672 141.108 29.2529 141.177 29.1123V28.4619H140.752C140.088 28.4619 139.756 28.6562 139.756 29.0449C139.756 29.2148 139.812 29.3477 139.926 29.4434C140.039 29.5391 140.185 29.5869 140.362 29.5869ZM143.453 28.5322L143.113 28.8867V30H142.571V25.5H143.113V28.2217L143.403 27.873L144.391 26.8301H145.05L143.816 28.1543L145.193 30H144.558L143.453 28.5322ZM145.876 30V27.249H145.375V26.8301H145.876V26.5049C145.876 26.165 145.967 25.9023 146.148 25.7168C146.33 25.5312 146.587 25.4385 146.919 25.4385C147.044 25.4385 147.168 25.4551 147.291 25.4883L147.262 25.9277C147.17 25.9102 147.072 25.9014 146.969 25.9014C146.793 25.9014 146.657 25.9531 146.562 26.0566C146.466 26.1582 146.418 26.3047 146.418 26.4961V26.8301H147.095V27.249H146.418V30H145.876ZM149.652 30C149.621 29.9375 149.596 29.8262 149.576 29.666C149.324 29.9277 149.023 30.0586 148.674 30.0586C148.361 30.0586 148.104 29.9707 147.903 29.7949C147.704 29.6172 147.604 29.3926 147.604 29.1211C147.604 28.791 147.729 28.5352 147.979 28.3535C148.231 28.1699 148.585 28.0781 149.04 28.0781H149.567V27.8291C149.567 27.6396 149.511 27.4893 149.397 27.3779C149.284 27.2646 149.117 27.208 148.896 27.208C148.703 27.208 148.541 27.2568 148.41 27.3545C148.279 27.4521 148.214 27.5703 148.214 27.709H147.669C147.669 27.5508 147.725 27.3984 147.836 27.252C147.949 27.1035 148.102 26.9863 148.293 26.9004C148.486 26.8145 148.698 26.7715 148.929 26.7715C149.294 26.7715 149.58 26.8633 149.787 27.0469C149.994 27.2285 150.102 27.4795 150.109 27.7998V29.2588C150.109 29.5498 150.146 29.7812 150.221 29.9531V30H149.652ZM148.753 29.5869C148.923 29.5869 149.084 29.543 149.236 29.4551C149.389 29.3672 149.499 29.2529 149.567 29.1123V28.4619H149.143C148.479 28.4619 148.146 28.6562 148.146 29.0449C148.146 29.2148 148.203 29.3477 148.316 29.4434C148.43 29.5391 148.575 29.5869 148.753 29.5869ZM152.805 29.1592C152.805 29.0127 152.749 28.8994 152.638 28.8193C152.528 28.7373 152.336 28.667 152.061 28.6084C151.787 28.5498 151.569 28.4795 151.407 28.3975C151.247 28.3154 151.128 28.2178 151.05 28.1045C150.974 27.9912 150.936 27.8564 150.936 27.7002C150.936 27.4404 151.045 27.2207 151.264 27.041C151.484 26.8613 151.766 26.7715 152.107 26.7715C152.467 26.7715 152.758 26.8643 152.98 27.0498C153.205 27.2354 153.317 27.4727 153.317 27.7617H152.772C152.772 27.6133 152.709 27.4854 152.582 27.3779C152.457 27.2705 152.299 27.2168 152.107 27.2168C151.91 27.2168 151.756 27.2598 151.645 27.3457C151.533 27.4316 151.478 27.5439 151.478 27.6826C151.478 27.8135 151.529 27.9121 151.633 27.9785C151.736 28.0449 151.923 28.1084 152.192 28.1689C152.464 28.2295 152.684 28.3018 152.852 28.3857C153.02 28.4697 153.144 28.5713 153.224 28.6904C153.306 28.8076 153.347 28.9512 153.347 29.1211C153.347 29.4043 153.233 29.6318 153.007 29.8037C152.78 29.9736 152.486 30.0586 152.125 30.0586C151.871 30.0586 151.646 30.0137 151.451 29.9238C151.256 29.834 151.103 29.709 150.991 29.5488C150.882 29.3867 150.827 29.2119 150.827 29.0244H151.369C151.379 29.2061 151.451 29.3506 151.586 29.458C151.723 29.5635 151.902 29.6162 152.125 29.6162C152.33 29.6162 152.494 29.5752 152.617 29.4932C152.742 29.4092 152.805 29.2979 152.805 29.1592ZM154.788 26.0625V26.8301H155.38V27.249H154.788V29.2148C154.788 29.3418 154.814 29.4375 154.867 29.502C154.92 29.5645 155.01 29.5957 155.137 29.5957C155.199 29.5957 155.285 29.584 155.395 29.5605V30C155.252 30.0391 155.113 30.0586 154.979 30.0586C154.736 30.0586 154.554 29.9854 154.431 29.8389C154.308 29.6924 154.246 29.4844 154.246 29.2148V27.249H153.669V26.8301H154.246V26.0625H154.788Z" fill="#707070"/>
<rect x="166" y="26.6" width="38.1333" height="4.4" rx="2.2" fill="#49DEB8"/>
<path d="M181.376 22.2117L186.603 22.2114L183.989 26.0423L181.376 22.2117Z" fill="#F0967D"/>
<path d="M214.161 28.2363C214.161 28.8262 214.039 29.2773 213.795 29.5898C213.551 29.9023 213.193 30.0586 212.723 30.0586C212.258 30.0586 211.902 29.9053 211.656 29.5986C211.41 29.292 211.284 28.8525 211.278 28.2803V27.4951C211.278 26.8994 211.401 26.4473 211.647 26.1387C211.896 25.8301 212.252 25.6758 212.717 25.6758C213.182 25.6758 213.537 25.8291 213.783 26.1357C214.029 26.4404 214.155 26.8789 214.161 27.4512V28.2363ZM213.314 27.375C213.314 27.0215 213.266 26.7646 213.168 26.6045C213.072 26.4424 212.922 26.3613 212.717 26.3613C212.518 26.3613 212.37 26.4385 212.274 26.5928C212.181 26.7451 212.131 26.9844 212.125 27.3105V28.3477C212.125 28.6953 212.172 28.9541 212.266 29.124C212.361 29.292 212.514 29.376 212.723 29.376C212.93 29.376 213.079 29.2949 213.171 29.1328C213.263 28.9707 213.311 28.7227 213.314 28.3887V27.375ZM216.716 28.2949C216.495 28.5117 216.237 28.6201 215.942 28.6201C215.565 28.6201 215.264 28.4912 215.037 28.2334C214.811 27.9736 214.697 27.624 214.697 27.1846C214.697 26.9053 214.758 26.6494 214.879 26.417C215.002 26.1826 215.173 26.001 215.392 25.8721C215.61 25.7412 215.856 25.6758 216.13 25.6758C216.411 25.6758 216.661 25.7461 216.88 25.8867C217.099 26.0273 217.269 26.2295 217.39 26.4932C217.511 26.7568 217.572 27.0586 217.574 27.3984V27.7119C217.574 28.4229 217.397 28.9814 217.044 29.3877C216.69 29.7939 216.189 30.0107 215.541 30.0381L215.333 30.041V29.335L215.521 29.332C216.257 29.2988 216.655 28.9531 216.716 28.2949ZM216.15 27.9727C216.287 27.9727 216.404 27.9375 216.502 27.8672C216.602 27.7969 216.677 27.7119 216.728 27.6123V27.2637C216.728 26.9766 216.673 26.7539 216.563 26.5957C216.454 26.4375 216.308 26.3584 216.124 26.3584C215.954 26.3584 215.814 26.4365 215.705 26.5928C215.596 26.7471 215.541 26.9414 215.541 27.1758C215.541 27.4082 215.594 27.5996 215.699 27.75C215.807 27.8984 215.957 27.9727 216.15 27.9727ZM218.257 29.584C218.257 29.4492 218.302 29.3398 218.392 29.2559C218.483 29.1719 218.598 29.1299 218.734 29.1299C218.873 29.1299 218.987 29.1719 219.077 29.2559C219.169 29.3398 219.215 29.4492 219.215 29.584C219.215 29.7168 219.17 29.8252 219.08 29.9092C218.99 29.9912 218.875 30.0322 218.734 30.0322C218.596 30.0322 218.481 29.9912 218.392 29.9092C218.302 29.8252 218.257 29.7168 218.257 29.584ZM218.257 27.1846C218.257 27.0498 218.302 26.9404 218.392 26.8564C218.483 26.7725 218.598 26.7305 218.734 26.7305C218.873 26.7305 218.987 26.7725 219.077 26.8564C219.169 26.9404 219.215 27.0498 219.215 27.1846C219.215 27.3174 219.17 27.4258 219.08 27.5098C218.99 27.5918 218.875 27.6328 218.734 27.6328C218.596 27.6328 218.481 27.5918 218.392 27.5098C218.302 27.4258 218.257 27.3174 218.257 27.1846ZM222.745 28.2363C222.745 28.8262 222.623 29.2773 222.379 29.5898C222.135 29.9023 221.777 30.0586 221.307 30.0586C220.842 30.0586 220.486 29.9053 220.24 29.5986C219.994 29.292 219.868 28.8525 219.862 28.2803V27.4951C219.862 26.8994 219.985 26.4473 220.231 26.1387C220.479 25.8301 220.836 25.6758 221.301 25.6758C221.766 25.6758 222.121 25.8291 222.367 26.1357C222.613 26.4404 222.739 26.8789 222.745 27.4512V28.2363ZM221.898 27.375C221.898 27.0215 221.85 26.7646 221.752 26.6045C221.656 26.4424 221.506 26.3613 221.301 26.3613C221.102 26.3613 220.954 26.4385 220.858 26.5928C220.765 26.7451 220.715 26.9844 220.709 27.3105V28.3477C220.709 28.6953 220.756 28.9541 220.85 29.124C220.945 29.292 221.098 29.376 221.307 29.376C221.514 29.376 221.663 29.2949 221.755 29.1328C221.847 28.9707 221.895 28.7227 221.898 28.3887V27.375ZM226.19 28.2363C226.19 28.8262 226.068 29.2773 225.824 29.5898C225.58 29.9023 225.223 30.0586 224.752 30.0586C224.287 30.0586 223.932 29.9053 223.686 29.5986C223.439 29.292 223.313 28.8525 223.308 28.2803V27.4951C223.308 26.8994 223.431 26.4473 223.677 26.1387C223.925 25.8301 224.281 25.6758 224.746 25.6758C225.211 25.6758 225.566 25.8291 225.812 26.1357C226.059 26.4404 226.185 26.8789 226.19 27.4512V28.2363ZM225.344 27.375C225.344 27.0215 225.295 26.7646 225.197 26.6045C225.102 26.4424 224.951 26.3613 224.746 26.3613C224.547 26.3613 224.399 26.4385 224.304 26.5928C224.21 26.7451 224.16 26.9844 224.154 27.3105V28.3477C224.154 28.6953 224.201 28.9541 224.295 29.124C224.391 29.292 224.543 29.376 224.752 29.376C224.959 29.376 225.108 29.2949 225.2 29.1328C225.292 28.9707 225.34 28.7227 225.344 28.3887V27.375Z" fill="#707070"/>
<path d="M261.752 8.09863C261.27 7.95996 260.918 7.79004 260.697 7.58887C260.479 7.38574 260.369 7.13574 260.369 6.83887C260.369 6.50293 260.503 6.22559 260.771 6.00684C261.04 5.78613 261.39 5.67578 261.819 5.67578C262.112 5.67578 262.373 5.73242 262.602 5.8457C262.832 5.95898 263.01 6.11523 263.135 6.31445C263.262 6.51367 263.325 6.73145 263.325 6.96777H262.76C262.76 6.70996 262.678 6.50781 262.514 6.36133C262.35 6.21289 262.118 6.13867 261.819 6.13867C261.542 6.13867 261.325 6.2002 261.169 6.32324C261.015 6.44434 260.938 6.61328 260.938 6.83008C260.938 7.00391 261.011 7.15137 261.157 7.27246C261.306 7.3916 261.557 7.50098 261.91 7.60059C262.266 7.7002 262.543 7.81055 262.742 7.93164C262.943 8.05078 263.092 8.19043 263.188 8.35059C263.285 8.51074 263.334 8.69922 263.334 8.91602C263.334 9.26172 263.199 9.53906 262.93 9.74805C262.66 9.95508 262.3 10.0586 261.849 10.0586C261.556 10.0586 261.282 10.0029 261.028 9.8916C260.774 9.77832 260.578 9.62402 260.439 9.42871C260.303 9.2334 260.234 9.01172 260.234 8.76367H260.8C260.8 9.02148 260.895 9.22559 261.084 9.37598C261.275 9.52441 261.53 9.59863 261.849 9.59863C262.146 9.59863 262.373 9.53809 262.531 9.41699C262.689 9.2959 262.769 9.13086 262.769 8.92188C262.769 8.71289 262.695 8.55176 262.549 8.43848C262.402 8.32324 262.137 8.20996 261.752 8.09863ZM264.708 6.0625V6.83008H265.3V7.24902H264.708V9.21484C264.708 9.3418 264.734 9.4375 264.787 9.50195C264.84 9.56445 264.93 9.5957 265.057 9.5957C265.119 9.5957 265.205 9.58398 265.314 9.56055V10C265.172 10.0391 265.033 10.0586 264.898 10.0586C264.656 10.0586 264.474 9.98535 264.351 9.83887C264.228 9.69238 264.166 9.48438 264.166 9.21484V7.24902H263.589V6.83008H264.166V6.0625H264.708ZM267.893 10C267.861 9.9375 267.836 9.82617 267.816 9.66602C267.564 9.92773 267.264 10.0586 266.914 10.0586C266.602 10.0586 266.345 9.9707 266.144 9.79492C265.944 9.61719 265.845 9.39258 265.845 9.12109C265.845 8.79102 265.97 8.53516 266.22 8.35352C266.472 8.16992 266.825 8.07812 267.28 8.07812H267.808V7.8291C267.808 7.63965 267.751 7.48926 267.638 7.37793C267.524 7.26465 267.357 7.20801 267.137 7.20801C266.943 7.20801 266.781 7.25684 266.65 7.35449C266.52 7.45215 266.454 7.57031 266.454 7.70898H265.909C265.909 7.55078 265.965 7.39844 266.076 7.25195C266.189 7.10352 266.342 6.98633 266.533 6.90039C266.727 6.81445 266.938 6.77148 267.169 6.77148C267.534 6.77148 267.82 6.86328 268.027 7.04688C268.234 7.22852 268.342 7.47949 268.35 7.7998V9.25879C268.35 9.5498 268.387 9.78125 268.461 9.95312V10H267.893ZM266.993 9.58691C267.163 9.58691 267.324 9.54297 267.477 9.45508C267.629 9.36719 267.739 9.25293 267.808 9.1123V8.46191H267.383C266.719 8.46191 266.387 8.65625 266.387 9.04492C266.387 9.21484 266.443 9.34766 266.557 9.44336C266.67 9.53906 266.815 9.58691 266.993 9.58691ZM269.466 10V7.24902H268.965V6.83008H269.466V6.50488C269.466 6.16504 269.557 5.90234 269.738 5.7168C269.92 5.53125 270.177 5.43848 270.509 5.43848C270.634 5.43848 270.758 5.45508 270.881 5.48828L270.852 5.92773C270.76 5.91016 270.662 5.90137 270.559 5.90137C270.383 5.90137 270.247 5.95312 270.151 6.05664C270.056 6.1582 270.008 6.30469 270.008 6.49609V6.83008H270.685V7.24902H270.008V10H269.466ZM271.552 10V7.24902H271.051V6.83008H271.552V6.50488C271.552 6.16504 271.643 5.90234 271.824 5.7168C272.006 5.53125 272.263 5.43848 272.595 5.43848C272.72 5.43848 272.844 5.45508 272.967 5.48828L272.938 5.92773C272.846 5.91016 272.748 5.90137 272.645 5.90137C272.469 5.90137 272.333 5.95312 272.237 6.05664C272.142 6.1582 272.094 6.30469 272.094 6.49609V6.83008H272.771V7.24902H272.094V10H271.552ZM276.356 9.25293L277.575 5.73438H278.19L276.608 10H276.11L274.531 5.73438H275.144L276.356 9.25293ZM279.269 10H278.727V6.83008H279.269V10ZM278.683 5.98926C278.683 5.90137 278.709 5.82715 278.762 5.7666C278.816 5.70605 278.896 5.67578 279.002 5.67578C279.107 5.67578 279.188 5.70605 279.242 5.7666C279.297 5.82715 279.324 5.90137 279.324 5.98926C279.324 6.07715 279.297 6.15039 279.242 6.20898C279.188 6.26758 279.107 6.29688 279.002 6.29688C278.896 6.29688 278.816 6.26758 278.762 6.20898C278.709 6.15039 278.683 6.07715 278.683 5.98926ZM281.984 9.15918C281.984 9.0127 281.929 8.89941 281.817 8.81934C281.708 8.7373 281.516 8.66699 281.24 8.6084C280.967 8.5498 280.749 8.47949 280.587 8.39746C280.427 8.31543 280.308 8.21777 280.229 8.10449C280.153 7.99121 280.115 7.85645 280.115 7.7002C280.115 7.44043 280.225 7.2207 280.443 7.04102C280.664 6.86133 280.945 6.77148 281.287 6.77148C281.646 6.77148 281.938 6.86426 282.16 7.0498C282.385 7.23535 282.497 7.47266 282.497 7.76172H281.952C281.952 7.61328 281.889 7.48535 281.762 7.37793C281.637 7.27051 281.479 7.2168 281.287 7.2168C281.09 7.2168 280.936 7.25977 280.824 7.3457C280.713 7.43164 280.657 7.54395 280.657 7.68262C280.657 7.81348 280.709 7.91211 280.812 7.97852C280.916 8.04492 281.103 8.1084 281.372 8.16895C281.644 8.22949 281.863 8.30176 282.031 8.38574C282.199 8.46973 282.323 8.57129 282.403 8.69043C282.485 8.80762 282.526 8.95117 282.526 9.12109C282.526 9.4043 282.413 9.63184 282.187 9.80371C281.96 9.97363 281.666 10.0586 281.305 10.0586C281.051 10.0586 280.826 10.0137 280.631 9.92383C280.436 9.83398 280.282 9.70898 280.171 9.54883C280.062 9.38672 280.007 9.21191 280.007 9.02441H280.549C280.559 9.20605 280.631 9.35059 280.766 9.45801C280.902 9.56348 281.082 9.61621 281.305 9.61621C281.51 9.61621 281.674 9.5752 281.797 9.49316C281.922 9.40918 281.984 9.29785 281.984 9.15918ZM283.821 10H283.279V6.83008H283.821V10ZM283.235 5.98926C283.235 5.90137 283.262 5.82715 283.314 5.7666C283.369 5.70605 283.449 5.67578 283.555 5.67578C283.66 5.67578 283.74 5.70605 283.795 5.7666C283.85 5.82715 283.877 5.90137 283.877 5.98926C283.877 6.07715 283.85 6.15039 283.795 6.20898C283.74 6.26758 283.66 6.29688 283.555 6.29688C283.449 6.29688 283.369 6.26758 283.314 6.20898C283.262 6.15039 283.235 6.07715 283.235 5.98926ZM285.427 6.0625V6.83008H286.019V7.24902H285.427V9.21484C285.427 9.3418 285.453 9.4375 285.506 9.50195C285.559 9.56445 285.648 9.5957 285.775 9.5957C285.838 9.5957 285.924 9.58398 286.033 9.56055V10C285.891 10.0391 285.752 10.0586 285.617 10.0586C285.375 10.0586 285.192 9.98535 285.069 9.83887C284.946 9.69238 284.885 9.48438 284.885 9.21484V7.24902H284.308V6.83008H284.885V6.0625H285.427ZM288.5 9.15918C288.5 9.0127 288.444 8.89941 288.333 8.81934C288.224 8.7373 288.031 8.66699 287.756 8.6084C287.482 8.5498 287.265 8.47949 287.103 8.39746C286.942 8.31543 286.823 8.21777 286.745 8.10449C286.669 7.99121 286.631 7.85645 286.631 7.7002C286.631 7.44043 286.74 7.2207 286.959 7.04102C287.18 6.86133 287.461 6.77148 287.803 6.77148C288.162 6.77148 288.453 6.86426 288.676 7.0498C288.9 7.23535 289.013 7.47266 289.013 7.76172H288.468C288.468 7.61328 288.404 7.48535 288.277 7.37793C288.152 7.27051 287.994 7.2168 287.803 7.2168C287.605 7.2168 287.451 7.25977 287.34 7.3457C287.229 7.43164 287.173 7.54395 287.173 7.68262C287.173 7.81348 287.225 7.91211 287.328 7.97852C287.432 8.04492 287.618 8.1084 287.888 8.16895C288.159 8.22949 288.379 8.30176 288.547 8.38574C288.715 8.46973 288.839 8.57129 288.919 8.69043C289.001 8.80762 289.042 8.95117 289.042 9.12109C289.042 9.4043 288.929 9.63184 288.702 9.80371C288.476 9.97363 288.182 10.0586 287.82 10.0586C287.566 10.0586 287.342 10.0137 287.146 9.92383C286.951 9.83398 286.798 9.70898 286.687 9.54883C286.577 9.38672 286.522 9.21191 286.522 9.02441H287.064C287.074 9.20605 287.146 9.35059 287.281 9.45801C287.418 9.56348 287.598 9.61621 287.82 9.61621C288.025 9.61621 288.189 9.5752 288.312 9.49316C288.438 9.40918 288.5 9.29785 288.5 9.15918Z" fill="#707070"/>
<rect x="296" y="6.60001" width="38.1333" height="4.4" rx="2.2" fill="#49DEB8"/>
<path d="M311.376 2.21173L316.603 2.21145L313.989 6.04227L311.376 2.21173Z" fill="#F0967D"/>
<path d="M341.416 7.90234L341.662 5.73438H344.053V6.44043H342.356L342.251 7.35742C342.452 7.25 342.666 7.19629 342.893 7.19629C343.299 7.19629 343.617 7.32227 343.848 7.57422C344.078 7.82617 344.193 8.17871 344.193 8.63184C344.193 8.90723 344.135 9.1543 344.018 9.37305C343.902 9.58984 343.736 9.75879 343.52 9.87988C343.303 9.99902 343.047 10.0586 342.752 10.0586C342.494 10.0586 342.255 10.0068 342.034 9.90332C341.813 9.79785 341.639 9.65039 341.51 9.46094C341.383 9.27148 341.315 9.05566 341.308 8.81348H342.146C342.163 8.99121 342.225 9.12988 342.33 9.22949C342.438 9.32715 342.577 9.37598 342.749 9.37598C342.94 9.37598 343.088 9.30762 343.191 9.1709C343.295 9.03223 343.347 8.83691 343.347 8.58496C343.347 8.34277 343.287 8.15723 343.168 8.02832C343.049 7.89941 342.88 7.83496 342.661 7.83496C342.46 7.83496 342.297 7.8877 342.172 7.99316L342.09 8.06934L341.416 7.90234Z" fill="#707070"/>
<path d="M263.773 30H263.208V28.0283H261.058V30H260.495V25.7344H261.058V27.5684H263.208V25.7344H263.773V30ZM265.725 29.2061L266.463 26.8301H267.043L265.769 30.4893C265.571 31.0166 265.258 31.2803 264.828 31.2803L264.726 31.2715L264.523 31.2334V30.7939L264.67 30.8057C264.854 30.8057 264.996 30.7686 265.098 30.6943C265.201 30.6201 265.286 30.4844 265.353 30.2871L265.473 29.9648L264.342 26.8301H264.934L265.725 29.2061ZM267.356 28.3887C267.356 27.9023 267.472 27.5117 267.702 27.2168C267.933 26.9199 268.234 26.7715 268.607 26.7715C268.979 26.7715 269.272 26.8984 269.489 27.1523V25.5H270.031V30H269.533L269.507 29.6602C269.29 29.9258 268.988 30.0586 268.602 30.0586C268.234 30.0586 267.935 29.9082 267.702 29.6074C267.472 29.3066 267.356 28.9141 267.356 28.4297V28.3887ZM267.898 28.4502C267.898 28.8096 267.973 29.0908 268.121 29.2939C268.27 29.4971 268.475 29.5986 268.736 29.5986C269.08 29.5986 269.331 29.4443 269.489 29.1357V27.6797C269.327 27.3809 269.078 27.2314 268.742 27.2314C268.477 27.2314 268.27 27.334 268.121 27.5391C267.973 27.7441 267.898 28.0479 267.898 28.4502ZM272.407 27.3164C272.325 27.3027 272.236 27.2959 272.141 27.2959C271.785 27.2959 271.544 27.4473 271.417 27.75V30H270.875V26.8301H271.402L271.411 27.1963C271.589 26.9131 271.841 26.7715 272.167 26.7715C272.272 26.7715 272.353 26.7852 272.407 26.8125V27.3164ZM274.748 30C274.717 29.9375 274.691 29.8262 274.672 29.666C274.42 29.9277 274.119 30.0586 273.77 30.0586C273.457 30.0586 273.2 29.9707 272.999 29.7949C272.8 29.6172 272.7 29.3926 272.7 29.1211C272.7 28.791 272.825 28.5352 273.075 28.3535C273.327 28.1699 273.681 28.0781 274.136 28.0781H274.663V27.8291C274.663 27.6396 274.606 27.4893 274.493 27.3779C274.38 27.2646 274.213 27.208 273.992 27.208C273.799 27.208 273.637 27.2568 273.506 27.3545C273.375 27.4521 273.31 27.5703 273.31 27.709H272.765C272.765 27.5508 272.82 27.3984 272.932 27.252C273.045 27.1035 273.197 26.9863 273.389 26.9004C273.582 26.8145 273.794 26.7715 274.024 26.7715C274.39 26.7715 274.676 26.8633 274.883 27.0469C275.09 27.2285 275.197 27.4795 275.205 27.7998V29.2588C275.205 29.5498 275.242 29.7812 275.316 29.9531V30H274.748ZM273.849 29.5869C274.019 29.5869 274.18 29.543 274.332 29.4551C274.484 29.3672 274.595 29.2529 274.663 29.1123V28.4619H274.238C273.574 28.4619 273.242 28.6562 273.242 29.0449C273.242 29.2148 273.299 29.3477 273.412 29.4434C273.525 29.5391 273.671 29.5869 273.849 29.5869ZM276.79 26.0625V26.8301H277.382V27.249H276.79V29.2148C276.79 29.3418 276.816 29.4375 276.869 29.502C276.922 29.5645 277.012 29.5957 277.139 29.5957C277.201 29.5957 277.287 29.584 277.396 29.5605V30C277.254 30.0391 277.115 30.0586 276.98 30.0586C276.738 30.0586 276.556 29.9854 276.433 29.8389C276.31 29.6924 276.248 29.4844 276.248 29.2148V27.249H275.671V26.8301H276.248V26.0625H276.79ZM278.606 30H278.064V26.8301H278.606V30ZM278.021 25.9893C278.021 25.9014 278.047 25.8271 278.1 25.7666C278.154 25.7061 278.234 25.6758 278.34 25.6758C278.445 25.6758 278.525 25.7061 278.58 25.7666C278.635 25.8271 278.662 25.9014 278.662 25.9893C278.662 26.0771 278.635 26.1504 278.58 26.209C278.525 26.2676 278.445 26.2969 278.34 26.2969C278.234 26.2969 278.154 26.2676 278.1 26.209C278.047 26.1504 278.021 26.0771 278.021 25.9893ZM279.333 28.3857C279.333 28.0752 279.394 27.7959 279.515 27.5479C279.638 27.2998 279.808 27.1084 280.024 26.9736C280.243 26.8389 280.492 26.7715 280.771 26.7715C281.203 26.7715 281.552 26.9209 281.817 27.2197C282.085 27.5186 282.219 27.916 282.219 28.4121V28.4502C282.219 28.7588 282.159 29.0361 282.04 29.2822C281.923 29.5264 281.754 29.7168 281.533 29.8535C281.314 29.9902 281.062 30.0586 280.777 30.0586C280.348 30.0586 279.999 29.9092 279.731 29.6104C279.466 29.3115 279.333 28.916 279.333 28.4238V28.3857ZM279.878 28.4502C279.878 28.8018 279.959 29.084 280.121 29.2969C280.285 29.5098 280.504 29.6162 280.777 29.6162C281.053 29.6162 281.271 29.5088 281.434 29.2939C281.596 29.0771 281.677 28.7744 281.677 28.3857C281.677 28.0381 281.594 27.7568 281.428 27.542C281.264 27.3252 281.045 27.2168 280.771 27.2168C280.504 27.2168 280.288 27.3232 280.124 27.5361C279.96 27.749 279.878 28.0537 279.878 28.4502ZM283.411 26.8301L283.429 27.2285C283.671 26.9238 283.987 26.7715 284.378 26.7715C285.048 26.7715 285.386 27.1494 285.392 27.9053V30H284.85V27.9023C284.848 27.6738 284.795 27.5049 284.691 27.3955C284.59 27.2861 284.431 27.2314 284.214 27.2314C284.038 27.2314 283.884 27.2783 283.751 27.3721C283.618 27.4658 283.515 27.5889 283.44 27.7412V30H282.898V26.8301H283.411Z" fill="#707070"/>
<rect x="296" y="26.6" width="38.1333" height="4.4" rx="2.2" fill="#49DEB8"/>
<path d="M311.376 22.2117L316.603 22.2114L313.989 26.0423L311.376 22.2117Z" fill="#F0967D"/>
<path d="M344.161 28.2363C344.161 28.8262 344.039 29.2773 343.795 29.5898C343.551 29.9023 343.193 30.0586 342.723 30.0586C342.258 30.0586 341.902 29.9053 341.656 29.5986C341.41 29.292 341.284 28.8525 341.278 28.2803V27.4951C341.278 26.8994 341.401 26.4473 341.647 26.1387C341.896 25.8301 342.252 25.6758 342.717 25.6758C343.182 25.6758 343.537 25.8291 343.783 26.1357C344.029 26.4404 344.155 26.8789 344.161 27.4512V28.2363ZM343.314 27.375C343.314 27.0215 343.266 26.7646 343.168 26.6045C343.072 26.4424 342.922 26.3613 342.717 26.3613C342.518 26.3613 342.37 26.4385 342.274 26.5928C342.181 26.7451 342.131 26.9844 342.125 27.3105V28.3477C342.125 28.6953 342.172 28.9541 342.266 29.124C342.361 29.292 342.514 29.376 342.723 29.376C342.93 29.376 343.079 29.2949 343.171 29.1328C343.263 28.9707 343.311 28.7227 343.314 28.3887V27.375ZM346.716 28.2949C346.495 28.5117 346.237 28.6201 345.942 28.6201C345.565 28.6201 345.264 28.4912 345.037 28.2334C344.811 27.9736 344.697 27.624 344.697 27.1846C344.697 26.9053 344.758 26.6494 344.879 26.417C345.002 26.1826 345.173 26.001 345.392 25.8721C345.61 25.7412 345.856 25.6758 346.13 25.6758C346.411 25.6758 346.661 25.7461 346.88 25.8867C347.099 26.0273 347.269 26.2295 347.39 26.4932C347.511 26.7568 347.572 27.0586 347.574 27.3984V27.7119C347.574 28.4229 347.397 28.9814 347.044 29.3877C346.69 29.7939 346.189 30.0107 345.541 30.0381L345.333 30.041V29.335L345.521 29.332C346.257 29.2988 346.655 28.9531 346.716 28.2949ZM346.15 27.9727C346.287 27.9727 346.404 27.9375 346.502 27.8672C346.602 27.7969 346.677 27.7119 346.728 27.6123V27.2637C346.728 26.9766 346.673 26.7539 346.563 26.5957C346.454 26.4375 346.308 26.3584 346.124 26.3584C345.954 26.3584 345.814 26.4365 345.705 26.5928C345.596 26.7471 345.541 26.9414 345.541 27.1758C345.541 27.4082 345.594 27.5996 345.699 27.75C345.807 27.8984 345.957 27.9727 346.15 27.9727ZM348.257 29.584C348.257 29.4492 348.302 29.3398 348.392 29.2559C348.483 29.1719 348.598 29.1299 348.734 29.1299C348.873 29.1299 348.987 29.1719 349.077 29.2559C349.169 29.3398 349.215 29.4492 349.215 29.584C349.215 29.7168 349.17 29.8252 349.08 29.9092C348.99 29.9912 348.875 30.0322 348.734 30.0322C348.596 30.0322 348.481 29.9912 348.392 29.9092C348.302 29.8252 348.257 29.7168 348.257 29.584ZM348.257 27.1846C348.257 27.0498 348.302 26.9404 348.392 26.8564C348.483 26.7725 348.598 26.7305 348.734 26.7305C348.873 26.7305 348.987 26.7725 349.077 26.8564C349.169 26.9404 349.215 27.0498 349.215 27.1846C349.215 27.3174 349.17 27.4258 349.08 27.5098C348.99 27.5918 348.875 27.6328 348.734 27.6328C348.596 27.6328 348.481 27.5918 348.392 27.5098C348.302 27.4258 348.257 27.3174 348.257 27.1846ZM350.735 27.4922H351.187C351.401 27.4922 351.561 27.4385 351.664 27.3311C351.768 27.2236 351.819 27.0811 351.819 26.9033C351.819 26.7314 351.768 26.5977 351.664 26.502C351.562 26.4062 351.422 26.3584 351.242 26.3584C351.08 26.3584 350.944 26.4033 350.835 26.4932C350.726 26.5811 350.671 26.6963 350.671 26.8389H349.824C349.824 26.6162 349.884 26.417 350.003 26.2412C350.124 26.0635 350.292 25.9248 350.507 25.8252C350.724 25.7256 350.962 25.6758 351.222 25.6758C351.673 25.6758 352.026 25.7842 352.282 26.001C352.538 26.2158 352.666 26.5127 352.666 26.8916C352.666 27.0869 352.606 27.2666 352.487 27.4307C352.368 27.5947 352.212 27.7207 352.019 27.8086C352.259 27.8945 352.438 28.0234 352.555 28.1953C352.674 28.3672 352.733 28.5703 352.733 28.8047C352.733 29.1836 352.595 29.4873 352.317 29.7158C352.042 29.9443 351.677 30.0586 351.222 30.0586C350.796 30.0586 350.447 29.9463 350.176 29.7217C349.906 29.4971 349.771 29.2002 349.771 28.8311H350.618C350.618 28.9912 350.678 29.1221 350.797 29.2236C350.918 29.3252 351.066 29.376 351.242 29.376C351.443 29.376 351.601 29.3232 351.714 29.2178C351.829 29.1104 351.887 28.9688 351.887 28.793C351.887 28.3672 351.652 28.1543 351.184 28.1543H350.735V27.4922ZM356.19 28.2363C356.19 28.8262 356.068 29.2773 355.824 29.5898C355.58 29.9023 355.223 30.0586 354.752 30.0586C354.287 30.0586 353.932 29.9053 353.686 29.5986C353.439 29.292 353.313 28.8525 353.308 28.2803V27.4951C353.308 26.8994 353.431 26.4473 353.677 26.1387C353.925 25.8301 354.281 25.6758 354.746 25.6758C355.211 25.6758 355.566 25.8291 355.812 26.1357C356.059 26.4404 356.185 26.8789 356.19 27.4512V28.2363ZM355.344 27.375C355.344 27.0215 355.295 26.7646 355.197 26.6045C355.102 26.4424 354.951 26.3613 354.746 26.3613C354.547 26.3613 354.399 26.4385 354.304 26.5928C354.21 26.7451 354.16 26.9844 354.154 27.3105V28.3477C354.154 28.6953 354.201 28.9541 354.295 29.124C354.391 29.292 354.543 29.376 354.752 29.376C354.959 29.376 355.108 29.2949 355.2 29.1328C355.292 28.9707 355.34 28.7227 355.344 28.3887V27.375Z" fill="#707070"/>
</svg>
