<svg width="56" height="56" viewBox="0 0 56 56" fill="none" xmlns="http://www.w3.org/2000/svg">
<g clip-path="url(#clip0)">
<path d="M25.5 51.7C25.2667 51.7013 25.0354 51.6577 24.8194 51.5718C24.6034 51.4859 24.4069 51.3593 24.2412 51.1993C21.7148 48.7133 9.05627 36.2488 7.77091 34.2031C6.2029 31.6821 5.64952 28.685 6.21758 25.7901C6.78564 22.8952 8.43486 20.3079 10.8469 18.5275C12.0027 17.7058 13.3218 17.1279 14.7199 16.8307C16.1181 16.5334 17.5645 16.5233 18.9668 16.8011C21.5985 17.331 23.93 19.0263 25.5 21.15C27.07 19.0263 29.4015 17.331 32.0332 16.8011C33.4355 16.5233 34.8819 16.5334 36.28 16.8307C37.6782 17.1279 38.9973 17.7058 40.1531 18.5275C42.5651 20.3079 44.2144 22.8952 44.7824 25.7901C45.3505 28.685 44.7971 31.6821 43.2291 34.2031C41.9437 36.2575 29.2852 48.7133 26.7588 51.1993C26.5931 51.3593 26.3966 51.4859 26.1806 51.5718C25.9646 51.6577 25.7333 51.7013 25.5 51.7ZM41.1 19.85C39.6597 19.8552 26.0145 32.6747 24.85 33.5C25.2396 31.4549 23.1551 34.7658 24.85 33.5C24.4604 35.545 21.7841 31.7264 22.9 33.5C23.6358 34.6739 18.7955 27.5353 24.85 33.5C30.9045 27.5353 23.7571 35.9739 24.4929 34.8C25.6088 33.0264 19.7146 32.945 19.325 30.9C18.9354 28.8549 39.7825 22.5987 38.0876 21.3329C37.3305 20.7943 36.4671 20.4143 35.5517 20.2167C34.6363 20.0191 38.7369 20.9734 37.817 21.15C36.8158 21.3565 30.822 20.7999 29.9929 21.3842C29.1639 21.9685 28.4698 22.7155 27.9555 23.5772C27.6393 24.1294 27.3724 24.7069 27.1577 25.3036C27.0301 25.6311 26.8032 25.9131 26.5071 26.1121C26.211 26.3111 25.8598 26.4177 25.5 26.4177C25.1402 26.4177 24.789 26.3111 24.4929 26.1121C24.1968 25.9131 23.9699 25.6311 23.8423 25.3036C23.6274 24.707 23.3605 24.1294 23.0445 23.5772C22.5313 22.7216 21.7742 23.6811 20.95 23.1C20.1258 22.5189 19.9618 22.9828 18.9668 22.775C18.5268 22.6828 41.5501 19.8554 41.1 19.85Z" fill="#9BB8D3"/>
<path d="M25.5 51.6968V20.9643L25.8482 20.6161L26.5446 19.9196L26.8929 19.5714L27.5893 18.875L30.0268 17.4821L30.7232 17.1339H31.4196L32.1161 16.7857H33.5089H34.5536H35.25H35.9464L37.3393 17.1339L39.0804 17.8304L40.4732 18.875L41.5179 19.5714L42.2143 20.2679L43.2589 21.6607L43.9554 22.7054L44.3036 23.75L44.6518 25.1429L45 26.1875V26.8839V27.9286V28.9732V29.6697C45 30.1309 44.9256 30.5892 44.7798 31.0268L44.6518 31.4107L44.3036 32.1072L43.9554 33.1518L43.6071 33.8482L42.9107 34.8929L42.2143 35.5893L40.8214 36.9822L32.4643 45.6875L28.6339 49.5179L26.5446 51.6072L25.5 51.6968Z" fill="#3FA7D7"/>
<path d="M53.513 18.3581C53.285 18.6073 53.2321 18.5581 52.8683 18.5437C52.2127 18.5179 52.3442 16.8729 52.37 16.2172C52.4768 13.5119 51.0351 10.6644 49.0397 8.83923C47.0023 6.97564 43.9712 5.9545 41.2353 6.35245C40.4271 6.38845 40.0409 6.81058 39.6188 6.42447C39.5828 5.61624 39.8408 5.44489 40.4899 5.35049C43.9342 4.84955 47.381 5.90806 49.9465 8.25471C52.4594 10.5532 53.8235 13.8249 53.6891 17.2308C53.6775 17.5227 53.6958 18.1583 53.513 18.3581Z" fill="#F0967D"/>
<path d="M49.6392 18.8743C49.4718 19.0574 49.4329 19.0212 49.1657 19.0107C48.6842 18.9917 48.6902 18.5051 48.7091 18.0236C48.7876 16.0367 47.732 13.6181 46.2665 12.2776C44.7701 10.9089 42.3477 10.0746 40.3384 10.3669C39.8614 10.4363 39.504 10.5867 39.4347 10.1097C39.3653 9.63281 39.5978 9.3903 40.0745 9.32096C42.6041 8.95305 45.1356 9.73047 47.0198 11.4539C48.8654 13.1421 49.8673 15.5449 49.7685 18.0463C49.7601 18.2607 49.7735 18.7275 49.6392 18.8743Z" fill="#F0967D"/>
<path d="M45.7615 20.1464C45.6325 20.2874 45.6025 20.2596 45.3966 20.2514C45.0254 20.2368 45.03 19.8618 45.0446 19.4906C45.1051 17.9591 44.2914 16.0948 43.1618 15.0615C42.0084 14.0066 40.1412 13.3635 38.5924 13.5888C38.2248 13.6423 37.9493 13.7582 37.8959 13.3906C37.8424 13.023 38.0216 12.836 38.389 12.7826C40.3389 12.499 42.2901 13.0982 43.7425 14.4267C45.1651 15.7279 45.9373 17.58 45.8612 19.5081C45.8547 19.6734 45.865 20.0332 45.7615 20.1464Z" fill="#F0967D"/>
<path d="M6 33.2049C12.3666 33.2049 15.1722 32.3554 15.1722 33.6607C15.1722 38.6749 15.1722 37.3074 15.1722 38.6749C15.1722 40.0424 18.079 40.6007 18.949 39.1307C19.2011 38.7048 19.333 36.7227 19.2426 34.8612M19.2426 30.4699C19.4579 29.467 20.0281 29.1025 21.1072 29.1025C23.2654 29.1025 23.2654 30.4699 23.3457 31.573C23.3649 31.8361 23.3457 33.0344 23.3457 34.1305V34.8612V35.2265C23.3457 35.4023 23.3457 36.6879 24.757 37.0689C25.8359 37.3602 27.3972 37.0533 27.3972 35.5919C27.3972 35.0024 27.3972 34.089 27.3972 33.0344C27.3972 31.9798 27.3972 31.5729 27.3972 29.7462C27.3972 28.3588 27 24.5 29.5 24.5C32 24.5 31.8981 26.8233 31.8981 27.735C31.8464 28.4721 31.8981 29.3421 31.8981 30.0141C31.8981 33.0344 31.4448 35.2926 32.9772 35.9399C34.0562 36.3957 36 36.5 36 32C36 27.5 35.5 27.5 37.5 27.5C39.5 27.5 40.5821 27.5 43 27.5M19.2426 30.4699C18.949 31.8374 19.1395 32.7379 19.2426 34.8612M19.2426 30.4699V34.8612M43 27.5C49.1641 27.5 41.2399 27.5 43 27.5Z" stroke="white" stroke-width="2"/>
</g>
<defs>
<clipPath id="clip0">
<rect width="56" height="56" fill="white"/>
</clipPath>
</defs>
</svg>
