<svg width="56" height="56" viewBox="0 0 56 56" fill="none" xmlns="http://www.w3.org/2000/svg">
<path d="M31.5 10.5H35V14H31.5V10.5Z" fill="#AF4E4B"/>
<path d="M12.25 10.5H15.75V14H12.25V10.5Z" fill="#AF4E4B"/>
<path d="M36.75 54.25H29.75C27.8171 54.25 26.25 52.6829 26.25 50.75V17.5C26.25 15.5671 27.8171 14 29.75 14H36.75C38.6829 14 40.25 15.5671 40.25 17.5V50.75C40.25 52.6829 38.6829 54.25 36.75 54.25Z" fill="#52B0B6"/>
<path d="M36.75 23.1875C36.75 19.971 36.358 16.8831 35.6466 14H29.75C27.8171 14 26.25 15.5671 26.25 17.5V47.985C32.515 43.1121 36.75 33.8363 36.75 23.1875V23.1875Z" fill="#6DD5DC"/>
<path d="M17.5 54.25H10.5C8.56712 54.25 7 52.6829 7 50.75V17.5C7 15.5671 8.56712 14 10.5 14H17.5C19.4329 14 21 15.5671 21 17.5V50.75C21 52.6829 19.4329 54.25 17.5 54.25Z" fill="#52B0B6"/>
<path d="M17.5 23.1875C17.5 19.971 17.108 16.8831 16.3966 14H10.5C8.56712 14 7 15.5671 7 17.5V47.985C13.265 43.1121 17.5 33.8363 17.5 23.1875V23.1875Z" fill="#6DD5DC"/>
<path d="M5.25 22.75H42V26.25H5.25V22.75Z" fill="#F0967D"/>
<path d="M5.25 40.25H42V43.75H5.25V40.25Z" fill="#F0967D"/>
<path d="M47.25 49.875H45.5V12.25C45.5 10.8027 44.3223 9.625 42.875 9.625H13.125V7.875H42.875C45.2874 7.875 47.25 9.83763 47.25 12.25V49.875Z" fill="#8892A0"/>
<path d="M16.625 5.27275V2.625C16.625 2.142 16.233 1.75 15.75 1.75H12.25C11.767 1.75 11.375 2.142 11.375 2.625V5.27275C10.3189 6.07163 9.625 7.32638 9.625 8.75C9.625 11.1624 11.5876 13.125 14 13.125C16.4124 13.125 18.375 11.1624 18.375 8.75C18.375 7.32638 17.6811 6.07163 16.625 5.27275ZM13.125 3.5H14.875V4.46337C14.5924 4.40562 14.2993 4.375 14 4.375C13.7007 4.375 13.4076 4.40562 13.125 4.46337V3.5ZM14 11.375C12.5527 11.375 11.375 10.1973 11.375 8.75C11.375 7.30275 12.5527 6.125 14 6.125C15.4473 6.125 16.625 7.30275 16.625 8.75C16.625 10.1973 15.4473 11.375 14 11.375Z" fill="#666666"/>
<path d="M35.875 5.27275V2.625C35.875 2.142 35.483 1.75 35 1.75H31.5C31.017 1.75 30.625 2.142 30.625 2.625V5.27275C29.5689 6.07163 28.875 7.32638 28.875 8.75C28.875 11.1624 30.8376 13.125 33.25 13.125C35.6624 13.125 37.625 11.1624 37.625 8.75C37.625 7.32638 36.9311 6.07163 35.875 5.27275ZM32.375 3.5H34.125V4.46337C33.8424 4.40562 33.5493 4.375 33.25 4.375C32.9507 4.375 32.6576 4.40562 32.375 4.46337V3.5ZM33.25 11.375C31.8027 11.375 30.625 10.1973 30.625 8.75C30.625 7.30275 31.8027 6.125 33.25 6.125C34.6973 6.125 35.875 7.30275 35.875 8.75C35.875 10.1973 34.6973 11.375 33.25 11.375Z" fill="#666666"/>
<path d="M46.375 54.25C43.9626 54.25 42 52.2874 42 49.875C42 47.4626 43.9626 45.5 46.375 45.5C48.7874 45.5 50.75 47.4626 50.75 49.875C50.75 52.2874 48.7874 54.25 46.375 54.25ZM46.375 47.25C44.9277 47.25 43.75 48.4277 43.75 49.875C43.75 51.3223 44.9277 52.5 46.375 52.5C47.8223 52.5 49 51.3223 49 49.875C49 48.4277 47.8223 47.25 46.375 47.25Z" fill="#666666"/>
</svg>
