<svg width="60" height="60" viewBox="0 0 60 60" fill="none" xmlns="http://www.w3.org/2000/svg">
<g clip-path="url(#clip0)">
<path d="M19.281 13.631C20.4688 11.4479 23.2014 10.641 25.3844 11.8287L54.7302 27.7946C56.9133 28.9824 57.7202 31.715 56.5325 33.8981L53.9296 38.6822L16.6782 18.4151L19.281 13.631Z" fill="#3FA7D7" stroke="#4D80A2"/>
<path d="M32.7048 15.8114L46.0836 23.0903L44.487 26.0249L31.1082 18.746L32.7048 15.8114Z" fill="#E0F1FF" stroke="#4D80A2"/>
<path d="M18.7074 15.7159L45.4221 30.2503C46.1498 30.6463 46.4188 31.5571 46.0229 32.2848L45.1432 33.9018L17.1108 18.6504L18.7074 15.7159Z" fill="#F0967D" stroke="#4D80A2"/>
<path d="M15.5 41.9463C15.5 44.4316 17.5147 46.4463 20 46.4463H51C53.4853 46.4463 55.5 44.4316 55.5 41.9463V36.5H15.5V41.9463Z" fill="#3FA7D7" stroke="#4D80A2"/>
<path d="M15.5 39.8408H44.087C44.9154 39.8408 45.587 39.1692 45.587 38.3408V36.5H15.5V39.8408Z" fill="#F0967D" stroke="#4D80A2"/>
<circle cx="52.6798" cy="36.0157" r="3.93515" fill="white" stroke="#4D80A1"/>
<circle cx="52.7741" cy="35.9213" r="1.95349" fill="#3FA7D7" stroke="#6EBDDE"/>
<path d="M4.8303 21.0462L25.3911 30.5964C23.5902 34.2272 19.2117 35.7797 15.5144 34.0624L1.75337 27.6706L4.8303 21.0462Z" fill="#3FA7D7" stroke="#4D80A1"/>
<path d="M26.0559 30.1106L15.9315 25.8618C15.8458 27.8392 16.5963 28.7791 17.3947 29.8778C18.193 30.9766 21.7959 32.3497 23.1384 32.2883C24.189 32.2402 26.0259 31.0006 26.0559 30.1106Z" fill="white" stroke="#4D80A1"/>
<line x1="9.77733" y1="22.9012" x2="8.14627" y2="26.3879" stroke="#4D80A1"/>
<line x1="13.0358" y1="24.6707" x2="11.4048" y2="28.1574" stroke="#4D80A1"/>
<rect x="4.172" y="21.2757" width="1.10914" height="6.32" transform="rotate(25.3746 4.172 21.2757)" fill="#3FA7D7"/>
</g>
<defs>
<clipPath id="clip0">
<rect width="60" height="60" fill="white"/>
</clipPath>
</defs>
</svg>
