<svg width="56" height="55" viewBox="0 0 56 55" fill="none" xmlns="http://www.w3.org/2000/svg">
<g clip-path="url(#clip0)">
<ellipse cx="25" cy="53.5" rx="21" ry="1.5" fill="#BABABA" fill-opacity="0.3"/>
<path d="M4.75547 8.08051C10.4111 -1.04791 18.9098 -2.00269 25.0996 3.02375C25.9374 3.70422 25.9377 4.96727 25.0996 5.64795C14.698 14.0948 14.6813 38.8917 25.0996 47.3521C25.9374 48.0326 25.9378 49.2956 25.0996 49.9764C18.9105 55.0023 10.4106 54.0472 4.75547 44.9196C-1.58402 34.6873 -1.5863 18.3165 4.75547 8.08051Z" fill="#CCCCCC"/>
<path d="M4.75547 8.08051C10.4111 -1.04791 18.9098 -2.00269 25.0996 3.02375C25.9374 3.70422 25.9377 4.96726 25.0996 5.64795C20.3883 9.4738 18.0518 16.6053 17.4464 22.7405L0.371331 20.9631C1.02235 16.1334 2.5232 11.6837 4.75547 8.08051V8.08051Z" fill="#CCCCCC"/>
<path d="M17.7118 30.8982C15.802 34.0575 12.4118 37.1001 9.52085 38.5455C5.18448 38.5455 2.43426 33.628 0.366282 30.8982C-0.594056 23.2829 0.301042 15.8613 4.22084 9.15457C4.70266 10.6 5.96127 14.5792 7.11175 16.3819C10.016 20.932 17.7118 16.3819 19.6391 13.4909C18.1561 18.2574 17.1355 25.9475 17.7118 30.8982Z" fill="#A5A8B1"/>
<path d="M17.0999 49.5951C20.5752 49.5951 23.9074 47.306 26.4826 43.1496C32.1513 33.9998 32.1502 18.9987 26.4826 9.8506C23.9074 5.69414 20.5752 3.40501 17.0999 3.40501C16.1426 3.40501 15.3664 2.64282 15.3664 1.70251C15.3664 0.762191 16.1426 0 17.0999 0H30.8901C35.6221 0 40.0062 2.86979 43.2345 8.08052C49.574 18.3128 49.5763 34.6835 43.2345 44.9195C40.0062 50.1303 35.6221 53 30.8901 53H17.0999C16.1426 53 15.3664 52.2378 15.3664 51.2975C15.3664 50.3572 16.1425 49.5951 17.0999 49.5951Z" fill="#A5A8B1"/>
<path d="M31.0977 11.9108H43.835C47.4966 11.9108 50.4755 15.4016 50.4755 19.6924V34.6186C50.4755 38.9093 47.4966 42.4001 43.835 42.4001H31.0977C27.4361 42.4001 24.4573 38.9093 24.4573 34.6186V19.6924C24.4574 15.4016 27.4362 11.9108 31.0977 11.9108Z" fill="#646465"/>
<path d="M33.025 11.9108H45.7623C49.4239 11.9108 52.4028 15.4016 52.4028 19.6924V34.6186C52.4028 38.9093 49.4239 42.4001 45.7623 42.4001H33.025C29.3634 42.4001 26.3845 38.9093 26.3845 34.6186V19.6924C26.3846 15.4016 29.3635 11.9108 33.025 11.9108Z" fill="#3FA7D7"/>
<path d="M24.4574 17.074C24.4574 11.9102 27.4362 7.70911 31.0978 7.70911H43.835C47.4966 7.70911 50.4755 11.9102 50.4755 17.074V28.9092C47.9896 28.3795 45.1036 27.5214 41.7565 26.2217C36.1394 24.0405 30.1506 24.291 24.4573 25.7637V17.074H24.4574Z" fill="#646465"/>
<path d="M26.3846 17.4996C26.3846 12.1011 29.3635 7.70911 33.0251 7.70911H45.7623C49.4239 7.70911 52.4028 12.1011 52.4028 17.4996V29.8728C49.9169 29.319 47.0309 28.422 43.6838 27.0632C38.0667 24.7829 32.0778 25.0447 26.3845 26.5843V17.4996H26.3846Z" fill="#3FA7D7"/>
<path d="M24.1727 22.1637H24.7419C25.1169 22.1637 25.4209 21.5478 25.4209 20.7881V18.7211C25.4209 17.9614 25.1169 17.3455 24.7419 17.3455H24.1727C23.7976 17.3455 23.4936 17.9614 23.4936 18.7211V20.7881C23.4936 21.5478 23.7976 22.1637 24.1727 22.1637Z" fill="#F0967D"/>
<path d="M24.4573 35.639H24.7419C24.7419 35.639 25.4209 35.9201 25.4209 34.0992V26.0156C25.4209 24.1947 25.1169 24.091 24.7419 24.091H24.1727C23.7976 24.091 23.4936 24.1947 23.4936 26.0156L23.4936 34.0992C23.4936 35.9201 24.0822 35.639 24.4573 35.639Z" fill="#F0967D"/>
<ellipse cx="40.3573" cy="25.0546" rx="8.19093" ry="9.63638" fill="#F1F1F1" fill-opacity="0.65"/>
<ellipse cx="40.8391" cy="25.5364" rx="5.78183" ry="7.22729" fill="#F1F1F1" fill-opacity="0.65"/>
<ellipse cx="41.3209" cy="25.5364" rx="3.37273" ry="4.33637" fill="#F1F1F1" fill-opacity="0.65"/>
<path d="M48.5482 8.67274H47.1364H28.7824L29.253 8.43184L30.1943 7.95002L31.6061 7.70911H43.8421H44.7833H45.2539H45.9087H46.1391L47.1364 7.90774L48.0664 8.19093L48.5482 8.67274Z" fill="#646465"/>
<circle cx="10.9663" cy="10.6" r="0.963638" fill="white"/>
<circle cx="10.9663" cy="41.4364" r="0.963638" fill="white"/>
<circle cx="13.8572" cy="45.291" r="0.963638" fill="white"/>
</g>
<defs>
<clipPath id="clip0">
<rect width="56" height="55" fill="white" transform="matrix(-1 0 0 1 56 0)"/>
</clipPath>
</defs>
</svg>
