<svg width="71" height="82" viewBox="0 0 71 82" fill="none" xmlns="http://www.w3.org/2000/svg">
<g clip-path="url(#clip0)">
<path d="M60.546 13.6637C66.0666 15.7 67.9115 24.4826 64.6666 33.2799C62.8612 38.1746 59.6951 42.9051 55.491 50.4592C52.1976 56.3772 47.8992 60.7029 43.7589 59.1758C39.6187 57.6486 38.1238 53.1556 40.463 46.8138C41.2596 44.6541 44.3639 41.8906 45.5282 38.9852C47.6298 33.7449 44.5907 30.2238 46.3961 25.3291C49.641 16.5317 55.0262 11.6277 60.546 13.6637ZM26.8589 21.9198C32.3787 23.9558 33.2896 31.1821 30.0447 39.9795C28.2393 44.8741 23.6417 45.5785 21.837 50.9283C20.8358 53.8939 21.4022 58.0113 20.6056 60.171C18.2664 66.5128 14.212 68.959 10.0717 67.4319C5.93147 65.9047 5.47152 59.8239 6.8098 53.1848C8.51787 44.71 9.18194 39.0567 10.9873 34.162C14.2322 25.3646 21.3383 19.8835 26.8589 21.9198Z" fill="#3FA7D7"/>
<path d="M55.5594 50.3109L42.4672 43.6841L41.0401 45.3703L54.6178 52.1357L55.5594 50.3109Z" fill="#F0967D"/>
<path d="M21.2895 56.7437L6.54009 53.8703L6.36064 55.9347L20.9063 58.7618L21.2895 56.7437Z" fill="#F0967D"/>
</g>
<defs>
<clipPath id="clip0">
<rect width="50.138" height="67.9131" fill="white" transform="matrix(-0.938213 -0.346059 -0.346059 0.938213 70.5421 17.3507)"/>
</clipPath>
</defs>
</svg>
