<svg width="56" height="56" viewBox="0 0 56 56" fill="none" xmlns="http://www.w3.org/2000/svg">
<g clip-path="url(#clip0)">
<ellipse cx="14" cy="51.5" rx="11" ry="1.5" fill="#BABABA" fill-opacity="0.5"/>
<path d="M26.0221 16.8333C26.0221 16.8333 26.0366 22.5598 26.6115 25.9192C26.7664 26.8237 26.0733 27.6501 25.1556 27.6501H19.9356C19.9357 27.65 22.4628 19.9671 26.0221 16.8333Z" fill="#F0967D"/>
<path d="M25.1554 27.6505H23.1651C24.0829 27.6505 24.7767 26.8238 24.6218 25.9186C24.2775 23.9105 24.1342 21.057 24.0745 19.0865C24.6772 18.2233 25.3302 17.4426 26.0219 16.8336C26.0219 16.8336 26.0365 22.5596 26.6121 25.9186C26.7668 26.8239 26.0731 27.6505 25.1554 27.6505Z" fill="#F0967D"/>
<path d="M32.6044 1.00596V14.5453L32.3831 14.5805C26.7916 15.7354 23.7637 21.4683 23.7637 21.4683C19.7945 27.4832 19.8395 41.2301 20.1358 48.034C20.1625 48.6459 20.1912 49.2014 20.2193 49.6904C20.2913 50.9438 19.2952 52 18.0396 52H10.6648C9.77628 52 8.98086 51.4596 8.64167 50.6384C8.2848 49.7746 7.99234 48.9037 7.75544 48.034C5.35802 39.2388 8.64909 30.5712 8.64909 30.5712C10.6948 24.6903 11.1155 21.3072 11.1155 21.3072C11.2809 19.9458 10.6435 18.7749 9.98219 17.9555C9.10846 16.8745 8.63232 15.5236 8.65427 14.1339C8.74112 8.84002 9.88589 4.41679 10.6802 1.96086C11.0789 0.729241 12.2592 -0.0775506 13.5526 -0.00745669L32.6044 1.00596Z" fill="#3FA7D7"/>
<path d="M32.3831 1.00637V14.5806C26.792 15.7358 23.7637 21.4682 23.7637 21.4682C19.7945 27.4831 19.8395 41.23 20.1356 48.0339C20.1629 48.6461 20.1911 49.2017 20.2193 49.6904C20.2916 50.944 19.2953 51.9998 18.0396 51.9998H17.2988C17.8377 51.576 18.1694 50.9032 18.1265 50.1602C18.0982 49.6716 18.07 49.1159 18.0428 48.5037C17.9873 47.2323 17.9392 44.3044 17.9089 43.0319C17.8074 38.8703 17.8566 34.6814 18.3787 30.547C18.8748 26.6218 19.8845 22.9908 22.0245 19.6537C23.7079 17.0303 26.0926 14.4521 29.0978 13.3849C29.8127 13.131 30.2902 12.4547 30.2902 11.6961V0.893402L32.3831 1.00637Z" fill="#4591B9"/>
<path d="M32.3832 1.00598L34.7018 1.12402C35.479 1.16364 36.0889 1.80536 36.0889 2.5835V12.7454C36.0889 13.4913 35.527 14.1176 34.7855 14.1983L32.3832 14.5805V1.00598Z" fill="#F0967D"/>
<path d="M36.0884 2.5834V12.7453C36.0884 13.4914 35.5276 14.1172 34.7856 14.1988L33.3405 14.428C33.8731 14.181 34.2362 13.6421 34.2362 13.0258V2.28829C34.2362 1.79438 34.0039 1.35279 33.6408 1.07028L34.7019 1.12361C35.4794 1.16333 36.0884 1.80485 36.0884 2.5834Z" fill="#F0967D"/>
<path d="M27.9068 3.64726H14.9036C14.439 3.64726 14.0282 3.94745 13.8883 4.39046C13.4297 5.84283 12.4913 9.18925 12.472 12.3129C12.4681 12.9484 13.0133 13.4482 13.6456 13.3837L28.015 11.9164C28.5584 11.8609 28.9717 11.4033 28.9717 10.857V4.71208C28.9717 4.124 28.495 3.64726 27.9068 3.64726Z" fill="#F7F7F7"/>
<path d="M28.9718 4.71181V10.8575C28.9718 11.4038 28.5584 11.8611 28.0153 11.9166L26.4038 12.0808C26.6926 11.8716 26.8789 11.5314 26.8789 11.1516V4.5445C26.8789 4.18144 26.7105 3.85809 26.4467 3.64771H27.9065C28.4945 3.6476 28.9718 4.12373 28.9718 4.71181Z" fill="#F7F7F7"/>
<path d="M18.0396 52H10.6648C9.77627 52 8.98086 51.4595 8.64166 50.6383C8.28479 49.7745 7.99233 48.9036 7.75543 48.034H20.1357C20.1625 48.6458 20.1912 49.2014 20.2192 49.6903C20.2912 50.9438 19.2951 52 18.0396 52Z" fill="#4591B9"/>
<path d="M18.0396 51.9999H17.2988C17.8377 51.5761 18.1694 50.9033 18.1265 50.1603C18.0982 49.6717 18.07 49.116 18.0428 48.5039C18.0365 48.3657 18.0313 48.2078 18.025 48.034H20.1356C20.1629 48.6462 20.1911 49.2019 20.2193 49.6905C20.2916 50.9441 19.2953 51.9999 18.0396 51.9999Z" fill="#4591B9"/>
<path d="M46.0821 15.0286C45.808 15.0286 45.8084 14.97 45.6177 14.7442C45.274 14.3373 46.3314 13.5148 46.7383 13.1711C48.4172 11.7528 49.3329 9.32919 49.3329 7.13398C49.3329 4.89262 48.2838 2.51759 46.5465 1.0969C46.0821 0.632514 45.6177 0.632514 45.6177 0.168128C46.0821 -0.296245 46.3261 -0.235582 46.7383 0.10146C48.9254 1.89005 50.1798 4.53456 50.1798 7.35691C50.1798 10.1214 48.9676 12.7309 46.8539 14.5164C46.6727 14.6695 46.302 15.0286 46.0821 15.0286Z" fill="#F0967D"/>
<path d="M43.6506 12.9911C43.4492 12.9911 43.4496 12.948 43.3095 12.7822C43.057 12.4834 43.3518 12.2204 43.6506 11.9679C44.8836 10.9263 45.754 8.96892 45.754 7.35667C45.754 5.71052 44.9265 3.80248 43.6506 2.75907C43.3477 2.51144 43.0618 2.37972 43.3095 2.07693C43.5571 1.77405 43.8298 1.78043 44.1325 2.02797C45.7388 3.34159 46.6601 5.28382 46.6601 7.35667C46.6601 9.38703 45.7697 11.3036 44.2174 12.6149C44.0843 12.7273 43.8121 12.9911 43.6506 12.9911Z" fill="#F0967D"/>
<path d="M40.7641 11.3654C40.6089 11.3654 40.6092 11.3322 40.5012 11.2044C40.3067 10.974 40.5338 10.7713 40.7642 10.5767C41.7146 9.77382 42.3855 8.26508 42.3855 7.02236C42.3855 5.75349 41.7477 4.28278 40.7642 3.47851C40.5307 3.28763 40.3103 3.1861 40.5013 2.95271C40.6921 2.71925 40.9023 2.72417 41.1356 2.91497C42.3737 3.92751 43.0839 5.4246 43.0839 7.02236C43.0839 8.58736 42.3976 10.0646 41.201 11.0754C41.0985 11.1621 40.8886 11.3654 40.7641 11.3654Z" fill="#F0967D"/>
<circle cx="15.3505" cy="15.7775" r="0.928781" fill="#707070"/>
<circle cx="18.1369" cy="15.7775" r="0.928781" fill="#707070"/>
<circle cx="20.9232" cy="15.7775" r="0.928781" fill="#707070"/>
</g>
<defs>
<clipPath id="clip0">
<rect width="56" height="56" fill="white"/>
</clipPath>
</defs>
</svg>
