<svg width="65" height="65" viewBox="0 0 65 65" fill="none" xmlns="http://www.w3.org/2000/svg">
<path d="M23.8315 18.2812H27.894V65H23.8315V18.2812Z" fill="#77959E"/>
<path d="M36.019 10.1562C36.019 15.7655 31.472 20.3125 25.8627 20.3125C20.254 20.3125 15.7065 15.7655 15.7065 10.1562C15.7065 4.547 20.254 0 25.8627 0C31.472 0 36.019 4.547 36.019 10.1562Z" fill="#57565C"/>
<path d="M23.8315 8.125H27.894V12.1875H23.8315V8.125Z" fill="#F0967D"/>
<path d="M33.9877 50.7812H38.0502V56.875H33.9877V50.7812Z" fill="#62808C"/>
<path d="M46.1752 50.7812H50.2377V56.875H46.1752V50.7812Z" fill="#62808C"/>
<path d="M46.1752 32.5H50.2377V42.6562H46.1752V32.5Z" fill="#62808C"/>
<path d="M41.3589 32.3557L42.8685 28.5818L55.056 33.4566L53.5464 37.2305L41.3589 32.3557Z" fill="#77959E"/>
<path d="M33.9877 60.9375H38.0502V65H33.9877V60.9375Z" fill="#62808C"/>
<path d="M46.1752 60.9375H50.2377V65H46.1752V60.9375Z" fill="#62808C"/>
<path d="M23.8315 22.9126L27.894 26.9751V55.3312L23.8315 51.3297V22.9126Z" fill="#62808C"/>
<path d="M52.269 52.8125H31.1238L6.72852 28.7931L11.035 24.4826C13.4471 22.1786 17.2448 22.1786 19.6574 24.4826L35.8162 40.625H52.269C55.6278 40.6419 58.3464 43.3599 58.3627 46.7187C58.3627 50.084 55.6347 52.8125 52.269 52.8125Z" fill="#6DD5DC"/>
<path d="M57.9566 44.5739C57.0734 46.9533 54.8075 48.5363 52.269 48.5467H31.1238L8.87978 26.6438L6.72852 28.7931L31.1238 52.8125H52.269C54.271 52.8199 56.147 51.8395 57.2841 50.1921C58.4212 48.5447 58.6732 46.443 57.9566 44.5739V44.5739Z" fill="#52B0B6"/>
</svg>
