<svg width="56" height="56" viewBox="0 0 56 56" fill="none" xmlns="http://www.w3.org/2000/svg">
<path d="M46.3492 51.1134H10.9407C9.65966 51.1134 10.1173 51.1134 8.88209 39.5851L6 7.31959C6 6.03853 7.03853 5 8.31959 5H48.6804C49.9615 5 51 6.03853 51 7.31959L48.4079 39.1733C46.9001 50.7017 47.6303 51.1134 46.3492 51.1134Z" fill="#3FA7D7"/>
<path d="M47.2922 49.4665H9.87347C9.87347 50.0625 10.1173 50.7017 10.1173 50.7017C10.1172 51.1134 10.8035 51.2506 10.9407 51.1134L44.9963 51.1134C45.8197 51.1134 46.4316 51.4428 46.761 51.1134C47.1727 50.7017 47.1727 50.7017 47.2922 49.4665Z" fill="#F0967D"/>
<path d="M31.8431 18.3671H24.6002C21.646 18.3671 19.2191 17.9648 18.9513 15.0805C18.935 14.9056 18.9268 14.7284 18.9268 14.5493C18.9268 11.4159 21.4669 8.87578 24.6003 8.87578H31.8432C34.7773 8.87578 37.1912 11.103 37.4864 13.9592C37.5064 14.1531 37.5167 14.35 37.5167 14.5493C37.5166 17.6826 34.9765 18.3671 31.8431 18.3671V18.3671Z" fill="white"/>
<path d="M39.1621 15.0804C39.1784 14.9055 39.1866 14.7283 39.1866 14.5492C39.1866 11.4158 36.6465 8.87567 33.5131 8.87567H30.7296C33.424 8.87567 35.6798 10.754 36.2589 13.2726C36.3533 13.6829 37.435 15.0159 37.435 15.4549L39.1621 15.0804Z" fill="white"/>
<path d="M29.0567 11.6196C25.2488 11.6196 21.743 12.9117 18.9523 15.0803C19.2203 17.9645 21.6461 20.2226 24.6002 20.2226H28.2446H29.8688H32.5854C35.5395 20.2226 37.9653 17.9645 38.2333 15.0803C37.3349 14.3822 37.2903 13.7749 36.2575 13.2723C34.082 12.2137 31.6389 11.6196 29.0567 11.6196V11.6196Z" fill="white"/>
<path d="M26.7845 15.0961C26.5864 14.7669 26.1588 14.6605 25.8295 14.8585C25.5002 15.0567 25.3939 15.4843 25.592 15.8135L28.2446 20.2226H29.8689L26.7845 15.0961Z" fill="#B2B9BF"/>
<path d="M36.2573 13.273C36.3516 13.6834 36.4032 14.1101 36.4032 14.5492C36.4032 17.6826 33.8631 20.2227 30.7297 20.2227H33.5132C36.4673 20.2227 38.8932 17.9645 39.1611 15.0804C38.2628 14.3822 37.2901 13.7756 36.2573 13.273V13.273Z" fill="white"/>
<path d="M11.6995 28.4785C11.5062 26.8676 12.6286 25.3949 14.2331 25.1542L19.587 24.3512L28.645 23.9394L38.1147 24.3512L43.1383 25.1444C44.7094 25.3924 45.8138 26.8235 45.6555 28.4062L44.149 43.4712C43.9957 45.0048 42.7052 46.1727 41.1639 46.1727H16.4843C14.9657 46.1727 13.6866 45.0379 13.5057 43.5301L11.6995 28.4785Z" fill="#4C90AE"/>
<ellipse cx="28.5" cy="54.5" rx="21.5" ry="1.5" fill="#BABABA" fill-opacity="0.3"/>
</svg>
